<?xml version="1.0" encoding="utf-8" standalone="no"?>
<!DOCTYPE svg PUBLIC "-//W3C//DTD SVG 1.1//EN"
  "http://www.w3.org/Graphics/SVG/1.1/DTD/svg11.dtd">
<svg xmlns:xlink="http://www.w3.org/1999/xlink" width="432pt" height="432pt" viewBox="0 0 432 432" xmlns="http://www.w3.org/2000/svg" version="1.1">
 <metadata>
  <rdf:RDF xmlns:dc="http://purl.org/dc/elements/1.1/" xmlns:cc="http://creativecommons.org/ns#" xmlns:rdf="http://www.w3.org/1999/02/22-rdf-syntax-ns#">
   <cc:Work>
    <dc:type rdf:resource="http://purl.org/dc/dcmitype/StillImage"/>
    <dc:date>2025-07-23T17:58:31.116655</dc:date>
    <dc:format>image/svg+xml</dc:format>
    <dc:creator>
     <cc:Agent>
      <dc:title>Matplotlib v3.10.3, https://matplotlib.org/</dc:title>
     </cc:Agent>
    </dc:creator>
   </cc:Work>
  </rdf:RDF>
 </metadata>
 <defs>
  <style type="text/css">*{stroke-linejoin: round; stroke-linecap: butt}</style>
 </defs>
 <g id="figure_1">
  <g id="patch_1">
   <path d="M 0 432 
L 432 432 
L 432 0 
L 0 0 
L 0 432 
z
" style="fill: none"/>
  </g>
  <g id="axes_1">
   <g id="patch_2">
    <path d="M 387.72 218.16 
C 387.72 196.319058 383.417811 174.690491 375.059644 154.512092 
C 366.701477 134.333692 354.449878 115.997879 339.006 100.554 
C 323.562121 85.110122 305.226308 72.858523 285.047908 64.500356 
C 264.869509 56.142189 243.240942 51.84 221.4 51.84 
C 199.559058 51.84 177.930491 56.142189 157.752092 64.500356 
C 137.573692 72.858523 119.237879 85.110122 103.794 100.554 
C 88.350122 115.997879 76.098523 134.333692 67.740356 154.512092 
C 59.382189 174.690491 55.08 196.319058 55.08 218.16 
C 55.08 240.000942 59.382189 261.629509 67.740356 281.807908 
C 76.098523 301.986308 88.350122 320.322121 103.794 335.766 
C 119.237879 351.209878 137.573692 363.461477 157.752092 371.819644 
C 177.930491 380.177811 199.559058 384.48 221.4 384.48 
C 243.240942 384.48 264.869509 380.177811 285.047908 371.819644 
C 305.226308 363.461477 323.562121 351.209878 339.006 335.766 
C 354.449878 320.322121 366.701477 301.986308 375.059644 281.807908 
C 383.417811 261.629509 387.72 240.000942 387.72 218.16 
M 221.4 218.16 
C 221.4 218.16 221.4 218.16 221.4 218.16 
C 221.4 218.16 221.4 218.16 221.4 218.16 
C 221.4 218.16 221.4 218.16 221.4 218.16 
C 221.4 218.16 221.4 218.16 221.4 218.16 
C 221.4 218.16 221.4 218.16 221.4 218.16 
C 221.4 218.16 221.4 218.16 221.4 218.16 
C 221.4 218.16 221.4 218.16 221.4 218.16 
C 221.4 218.16 221.4 218.16 221.4 218.16 
C 221.4 218.16 221.4 218.16 221.4 218.16 
C 221.4 218.16 221.4 218.16 221.4 218.16 
C 221.4 218.16 221.4 218.16 221.4 218.16 
C 221.4 218.16 221.4 218.16 221.4 218.16 
C 221.4 218.16 221.4 218.16 221.4 218.16 
C 221.4 218.16 221.4 218.16 221.4 218.16 
C 221.4 218.16 221.4 218.16 221.4 218.16 
C 221.4 218.16 221.4 218.16 221.4 218.16 
L 221.4 218.16 
z
" style="fill: none"/>
   </g>
   <g id="patch_3">
    <path d="M 221.4 59.76 
L 187.633003 198.664615 
L 221.4 218.16 
L 221.4 218.16 
L 221.4 218.16 
L 248.835685 202.32 
z
" clip-path="url(#pbbe982ec1d)" style="fill: #6495ed; opacity: 0.4; stroke: #6495ed; stroke-linejoin: miter"/>
   </g>
   <g id="patch_4">
    <path d="M 221.4 96.313846 
L 162.307756 184.043077 
L 221.4 218.16 
L 221.4 218.16 
L 221.4 218.16 
L 255.166997 198.664615 
z
" clip-path="url(#pbbe982ec1d)" style="fill: #90ee90; opacity: 0.4; stroke: #90ee90; stroke-linejoin: miter"/>
   </g>
   <g id="patch_5">
    <path d="M 221.4 101.187692 
L 158.086881 181.606154 
L 221.4 218.16 
L 221.4 218.16 
L 221.4 218.16 
L 257.277434 197.446154 
z
" clip-path="url(#pbbe982ec1d)" style="fill: #ff4500; opacity: 0.4; stroke: #ff4500; stroke-linejoin: miter"/>
   </g>
   <g id="patch_6">
    <path d="M 221.4 103.624615 
L 196.074752 203.538462 
L 221.4 218.16 
L 221.4 218.16 
L 221.4 218.16 
L 246.725248 203.538462 
z
" clip-path="url(#pbbe982ec1d)" style="fill: #ffd700; opacity: 0.4; stroke: #ffd700; stroke-linejoin: miter"/>
   </g>
   <g id="patch_7">
    <path d="M 221.4 115.809231 
L 170.749505 188.916923 
L 221.4 218.16 
L 221.4 218.16 
L 221.4 218.16 
L 253.056559 199.883077 
z
" clip-path="url(#pbbe982ec1d)" style="opacity: 0.4; stroke: #000000; stroke-linejoin: miter"/>
   </g>
   <g id="patch_8">
    <path d="M 221.4 71.944615 
L 136.982508 169.421538 
L 219.289563 219.378462 
L 221.4 225.470769 
L 242.504373 230.344615 
L 318.480115 162.110769 
z
" clip-path="url(#pbbe982ec1d)" style="fill: #a52a2a; opacity: 0.4; stroke: #a52a2a; stroke-linejoin: miter"/>
   </g>
   <g id="line2d_1">
    <path d="M 221.4 59.76 
L 187.633003 198.664615 
L 221.4 218.16 
L 221.4 218.16 
L 221.4 218.16 
L 248.835685 202.32 
L 221.4 59.76 
" clip-path="url(#pbbe982ec1d)" style="fill: none; stroke: #6495ed; stroke-width: 1.5; stroke-linecap: square"/>
   </g>
   <g id="line2d_2">
    <path d="M 221.4 96.313846 
L 162.307756 184.043077 
L 221.4 218.16 
L 221.4 218.16 
L 221.4 218.16 
L 255.166997 198.664615 
L 221.4 96.313846 
" clip-path="url(#pbbe982ec1d)" style="fill: none; stroke: #90ee90; stroke-width: 1.5; stroke-linecap: square"/>
   </g>
   <g id="line2d_3">
    <path d="M 221.4 101.187692 
L 158.086881 181.606154 
L 221.4 218.16 
L 221.4 218.16 
L 221.4 218.16 
L 257.277434 197.446154 
L 221.4 101.187692 
" clip-path="url(#pbbe982ec1d)" style="fill: none; stroke: #ff4500; stroke-width: 1.5; stroke-linecap: square"/>
   </g>
   <g id="line2d_4">
    <path d="M 221.4 103.624615 
L 196.074752 203.538462 
L 221.4 218.16 
L 221.4 218.16 
L 221.4 218.16 
L 246.725248 203.538462 
L 221.4 103.624615 
" clip-path="url(#pbbe982ec1d)" style="fill: none; stroke: #ffd700; stroke-width: 1.5; stroke-linecap: square"/>
   </g>
   <g id="line2d_5">
    <path d="M 221.4 115.809231 
L 170.749505 188.916923 
L 221.4 218.16 
L 221.4 218.16 
L 221.4 218.16 
L 253.056559 199.883077 
L 221.4 115.809231 
" clip-path="url(#pbbe982ec1d)" style="fill: none; stroke: #000000; stroke-width: 1.5; stroke-linecap: square"/>
   </g>
   <g id="line2d_6">
    <path d="M 221.4 71.944615 
L 136.982508 169.421538 
L 219.289563 219.378462 
L 221.4 225.470769 
L 242.504373 230.344615 
L 318.480115 162.110769 
L 221.4 71.944615 
" clip-path="url(#pbbe982ec1d)" style="fill: none; stroke: #a52a2a; stroke-width: 1.5; stroke-linecap: square"/>
   </g>
   <g id="patch_9">
    <path d="M 221.4 51.84 
C 199.559058 51.84 177.930491 56.142189 157.752092 64.500356 
C 137.573692 72.858523 119.237879 85.110122 103.794 100.554 
C 88.350122 115.997879 76.098523 134.333692 67.740356 154.512092 
C 59.382189 174.690491 55.08 196.319058 55.08 218.16 
C 55.08 240.000942 59.382189 261.629509 67.740356 281.807908 
C 76.098523 301.986308 88.350122 320.322121 103.794 335.766 
C 119.237879 351.209878 137.573692 363.461477 157.752092 371.819644 
C 177.930491 380.177811 199.559058 384.48 221.4 384.48 
C 243.240942 384.48 264.869509 380.177811 285.047908 371.819644 
C 305.226308 363.461477 323.562121 351.209878 339.006 335.766 
C 354.449878 320.322121 366.701477 301.986308 375.059644 281.807908 
C 383.417811 261.629509 387.72 240.000942 387.72 218.16 
C 387.72 196.319058 383.417811 174.690491 375.059644 154.512092 
C 366.701477 134.333692 354.449878 115.997879 339.006 100.554 
C 323.562121 85.110122 305.226308 72.858523 285.047908 64.500356 
C 264.869509 56.142189 243.240942 51.84 221.4 51.84 
" style="fill: none; stroke: #000000; stroke-width: 0.8; stroke-linejoin: miter; stroke-linecap: square"/>
   </g>
   <g id="matplotlib.axis_1">
    <g id="xtick_1">
     <g id="line2d_7">
      <path d="M 221.4 218.16 
L 221.4 51.84 
" clip-path="url(#pbbe982ec1d)" style="fill: none; stroke: #b0b0b0; stroke-width: 0.8; stroke-linecap: square"/>
     </g>
     <g id="text_1">
      <!-- hp -->
      <g transform="translate(215.260156 40.635312) scale(0.1 -0.1)">
       <defs>
        <path id="IPAexGothic-68" d="M 3347 63 
L 2797 63 
L 2797 2041 
Q 2797 2853 2131 2853 
Q 1447 2853 1131 2041 
L 1131 63 
L 581 63 
L 581 4794 
L 1131 4794 
L 1131 2706 
Q 1566 3316 2247 3316 
Q 3347 3316 3347 2072 
L 3347 63 
z
" transform="scale(0.015625)"/>
        <path id="IPAexGothic-70" d="M 1075 2688 
Q 1525 3341 2206 3341 
Q 2769 3341 3172 2938 
Q 3641 2469 3641 1644 
Q 3641 841 3178 372 
Q 2775 -31 2200 -31 
Q 1569 -31 1106 497 
L 1106 -1216 
L 563 -1216 
L 563 3250 
L 1075 3250 
L 1075 2688 
z
M 1106 1950 
L 1106 1291 
Q 1106 897 1516 600 
Q 1791 403 2106 403 
Q 2469 403 2725 659 
Q 3066 997 3066 1631 
Q 3066 2200 2784 2559 
Q 2503 2900 2100 2900 
Q 1656 2900 1338 2484 
Q 1106 2184 1106 1950 
z
" transform="scale(0.015625)"/>
       </defs>
       <use xlink:href="#IPAexGothic-68"/>
       <use xlink:href="#IPAexGothic-70" transform="translate(60.693359 0)"/>
      </g>
     </g>
    </g>
    <g id="xtick_2">
     <g id="line2d_8">
      <path d="M 221.4 218.16 
L 77.362655 135 
" clip-path="url(#pbbe982ec1d)" style="fill: none; stroke: #b0b0b0; stroke-width: 0.8; stroke-linecap: square"/>
     </g>
     <g id="text_2">
      <!-- 〇 -->
      <g transform="translate(60.238299 130.795312) scale(0.1 -0.1)">
       <defs>
        <path id="IPAexGothic-3007" d="M 3206 5088 
Q 3928 5088 4550 4703 
Q 5113 4366 5447 3822 
Q 5856 3184 5856 2434 
Q 5856 1716 5472 1084 
Q 5131 522 4588 188 
Q 3950 -222 3194 -222 
Q 2484 -222 1850 163 
Q 1288 500 953 1044 
Q 544 1681 544 2441 
Q 544 3719 1613 4538 
Q 2338 5088 3206 5088 
z
M 3188 4641 
Q 2541 4641 1972 4263 
Q 991 3609 991 2425 
Q 991 1753 1381 1191 
Q 2041 225 3206 225 
Q 3859 225 4428 603 
Q 5409 1266 5409 2441 
Q 5409 2922 5178 3394 
Q 4725 4313 3756 4569 
Q 3466 4641 3188 4641 
z
" transform="scale(0.015625)"/>
       </defs>
       <use xlink:href="#IPAexGothic-3007"/>
      </g>
     </g>
    </g>
    <g id="xtick_3">
     <g id="line2d_9">
      <path d="M 221.4 218.16 
L 77.362655 301.32 
" clip-path="url(#pbbe982ec1d)" style="fill: none; stroke: #b0b0b0; stroke-width: 0.8; stroke-linecap: square"/>
     </g>
     <g id="text_3">
      <!-- pow -->
      <g transform="translate(55.352362 311.115312) scale(0.1 -0.1)">
       <defs>
        <path id="IPAexGothic-6f" d="M 1919 3341 
Q 2594 3341 3056 2888 
Q 3531 2413 3531 1638 
Q 3531 888 3066 422 
Q 2609 -31 1919 -31 
Q 1228 -31 781 416 
Q 313 881 313 1656 
Q 313 2413 788 2888 
Q 1241 3341 1919 3341 
z
M 1919 2919 
Q 1519 2919 1241 2631 
Q 888 2278 888 1650 
Q 888 1031 1234 684 
Q 1516 403 1919 403 
Q 2331 403 2609 691 
Q 2956 1038 2956 1672 
Q 2956 2269 2603 2631 
Q 2316 2919 1919 2919 
z
" transform="scale(0.015625)"/>
        <path id="IPAexGothic-77" d="M 4772 3250 
L 3666 6 
L 3281 6 
L 2609 1919 
Q 2509 2203 2413 2622 
L 2394 2622 
Q 2322 2319 2188 1919 
L 1534 6 
L 1150 6 
L 44 3250 
L 619 3250 
L 1156 1491 
Q 1206 1331 1363 753 
L 1381 753 
Q 1475 1125 1594 1491 
L 2169 3250 
L 2656 3250 
L 3256 1491 
Q 3347 1244 3469 753 
L 3488 753 
Q 3591 1184 3684 1491 
L 4216 3250 
L 4772 3250 
z
" transform="scale(0.015625)"/>
       </defs>
       <use xlink:href="#IPAexGothic-70"/>
       <use xlink:href="#IPAexGothic-6f" transform="translate(62.109375 0)"/>
       <use xlink:href="#IPAexGothic-77" transform="translate(122.509766 0)"/>
      </g>
     </g>
    </g>
    <g id="xtick_4">
     <g id="line2d_10">
      <path d="M 221.4 218.16 
L 221.4 384.48 
" clip-path="url(#pbbe982ec1d)" style="fill: none; stroke: #b0b0b0; stroke-width: 0.8; stroke-linecap: square"/>
     </g>
     <g id="text_4">
      <!-- dp -->
      <g transform="translate(215.174219 401.275312) scale(0.1 -0.1)">
       <defs>
        <path id="IPAexGothic-64" d="M 3391 63 
L 2891 63 
L 2891 619 
Q 2441 -31 1753 -31 
Q 1181 -31 788 372 
Q 313 844 313 1663 
Q 313 2466 772 2938 
Q 1169 3341 1753 3341 
Q 2384 3341 2847 2809 
L 2847 4794 
L 3391 4794 
L 3391 63 
z
M 2847 1303 
L 2847 2097 
Q 2847 2413 2456 2706 
Q 2181 2906 1853 2906 
Q 1484 2906 1228 2650 
Q 888 2309 888 1678 
Q 888 1109 1169 750 
Q 1441 409 1847 409 
Q 2322 409 2656 875 
Q 2847 1134 2847 1303 
z
" transform="scale(0.015625)"/>
       </defs>
       <use xlink:href="#IPAexGothic-64"/>
       <use xlink:href="#IPAexGothic-70" transform="translate(62.402344 0)"/>
      </g>
     </g>
    </g>
    <g id="xtick_5">
     <g id="line2d_11">
      <path d="M 221.4 218.16 
L 365.437345 301.32 
" clip-path="url(#pbbe982ec1d)" style="fill: none; stroke: #b0b0b0; stroke-width: 0.8; stroke-linecap: square"/>
     </g>
     <g id="text_5">
      <!-- X -->
      <g transform="translate(374.131232 311.115313) scale(0.1 -0.1)">
       <defs>
        <path id="IPAexGothic-58" d="M 4203 63 
L 3469 63 
L 2163 1972 
L 881 63 
L 159 63 
L 1822 2369 
L 203 4634 
L 922 4634 
L 2181 2753 
L 3450 4634 
L 4166 4634 
L 2528 2375 
L 4203 63 
z
" transform="scale(0.015625)"/>
       </defs>
       <use xlink:href="#IPAexGothic-58"/>
      </g>
     </g>
    </g>
    <g id="xtick_6">
     <g id="line2d_12">
      <path d="M 221.4 218.16 
L 365.437345 135 
" clip-path="url(#pbbe982ec1d)" style="fill: none; stroke: #b0b0b0; stroke-width: 0.8; stroke-linecap: square"/>
     </g>
     <g id="text_6">
      <!-- △ -->
      <g transform="translate(372.561701 130.795312) scale(0.1 -0.1)">
       <defs>
        <path id="IPAexGothic-25b3" d="M 3200 4997 
L 5766 56 
L 634 56 
L 3200 4997 
z
M 3200 4069 
L 1363 484 
L 5038 484 
L 3200 4069 
z
" transform="scale(0.015625)"/>
       </defs>
       <use xlink:href="#IPAexGothic-25b3"/>
      </g>
     </g>
    </g>
   </g>
   <g id="matplotlib.axis_2">
    <g id="ytick_1">
     <g id="line2d_13">
      <path d="M 221.4 181.606154 
C 216.599793 181.606154 211.846262 182.55169 207.411449 184.38865 
C 202.976636 186.225609 198.946786 188.918269 195.552528 192.312528 
C 192.158269 195.706786 189.465609 199.736636 187.62865 204.171449 
C 185.79169 208.606262 184.846154 213.359793 184.846154 218.16 
C 184.846154 222.960207 185.79169 227.713738 187.62865 232.148551 
C 189.465609 236.583364 192.158269 240.613214 195.552528 244.007472 
C 198.946786 247.401731 202.976636 250.094391 207.411449 251.93135 
C 211.846262 253.76831 216.599793 254.713846 221.4 254.713846 
C 226.200207 254.713846 230.953738 253.76831 235.388551 251.93135 
C 239.823364 250.094391 243.853214 247.401731 247.247472 244.007472 
C 250.641731 240.613214 253.334391 236.583364 255.17135 232.148551 
C 257.00831 227.713738 257.953846 222.960207 257.953846 218.16 
C 257.953846 213.359793 257.00831 208.606262 255.17135 204.171449 
C 253.334391 199.736636 250.641731 195.706786 247.247472 192.312528 
C 243.853214 188.918269 239.823364 186.225609 235.388551 184.38865 
C 230.953738 182.55169 226.200207 181.606154 221.4 181.606154 
" clip-path="url(#pbbe982ec1d)" style="fill: none; stroke: #b0b0b0; stroke-width: 0.8; stroke-linecap: square"/>
     </g>
     <g id="text_7">
      <!-- 150 -->
      <g transform="translate(184.846154 216.26) scale(0.1 -0.1)">
       <defs>
        <path id="IPAexGothic-31" d="M 2463 63 
L 1900 63 
L 1900 4103 
Q 1372 3922 788 3797 
L 684 4231 
Q 1519 4441 2106 4731 
L 2463 4731 
L 2463 63 
z
" transform="scale(0.015625)"/>
        <path id="IPAexGothic-35" d="M 1178 2603 
Q 1634 2963 2172 2963 
Q 2816 2963 3241 2528 
Q 3638 2113 3638 1497 
Q 3638 938 3297 513 
Q 2869 -31 2031 -31 
Q 959 -31 469 784 
L 938 1028 
Q 1309 434 2013 434 
Q 2466 434 2769 716 
Q 3081 1013 3081 1503 
Q 3081 1966 2806 2241 
Q 2519 2528 2056 2528 
Q 1406 2528 1072 2028 
L 591 2091 
L 884 4634 
L 3406 4634 
L 3406 4153 
L 1341 4153 
L 1134 2603 
L 1178 2603 
z
" transform="scale(0.015625)"/>
        <path id="IPAexGothic-30" d="M 2038 4725 
Q 2881 4725 3334 3944 
Q 3694 3325 3694 2344 
Q 3694 1372 3334 741 
Q 2888 -31 2016 -31 
Q 1147 -31 700 741 
Q 341 1372 341 2350 
Q 341 3713 1000 4334 
Q 1419 4725 2038 4725 
z
M 2016 4266 
Q 1516 4266 1228 3759 
Q 934 3247 934 2344 
Q 934 1456 1222 947 
Q 1513 447 2016 447 
Q 2619 447 2909 1153 
Q 3100 1622 3100 2375 
Q 3100 3256 2806 3759 
Q 2509 4266 2016 4266 
z
" transform="scale(0.015625)"/>
       </defs>
       <use xlink:href="#IPAexGothic-31"/>
       <use xlink:href="#IPAexGothic-35" transform="translate(62.988281 0)"/>
       <use xlink:href="#IPAexGothic-30" transform="translate(125.976562 0)"/>
      </g>
     </g>
    </g>
    <g id="ytick_2">
     <g id="line2d_14">
      <path d="M 221.4 145.052308 
C 211.799586 145.052308 202.292524 146.94338 193.422897 150.617299 
C 184.553271 154.291219 176.493573 159.676537 169.705055 166.465055 
C 162.916537 173.253573 157.531219 181.313271 153.857299 190.182897 
C 150.18338 199.052524 148.292308 208.559586 148.292308 218.16 
C 148.292308 227.760414 150.18338 237.267476 153.857299 246.137103 
C 157.531219 255.006729 162.916537 263.066427 169.705055 269.854945 
C 176.493573 276.643463 184.553271 282.028781 193.422897 285.702701 
C 202.292524 289.37662 211.799586 291.267692 221.4 291.267692 
C 231.000414 291.267692 240.507476 289.37662 249.377103 285.702701 
C 258.246729 282.028781 266.306427 276.643463 273.094945 269.854945 
C 279.883463 263.066427 285.268781 255.006729 288.942701 246.137103 
C 292.61662 237.267476 294.507692 227.760414 294.507692 218.16 
C 294.507692 208.559586 292.61662 199.052524 288.942701 190.182897 
C 285.268781 181.313271 279.883463 173.253573 273.094945 166.465055 
C 266.306427 159.676537 258.246729 154.291219 249.377103 150.617299 
C 240.507476 146.94338 231.000414 145.052308 221.4 145.052308 
" clip-path="url(#pbbe982ec1d)" style="fill: none; stroke: #b0b0b0; stroke-width: 0.8; stroke-linecap: square"/>
     </g>
     <g id="text_8">
      <!-- 300 -->
      <g transform="translate(148.292308 216.26) scale(0.1 -0.1)">
       <defs>
        <path id="IPAexGothic-33" d="M 2381 2419 
Q 3506 2216 3506 1278 
Q 3506 716 3128 356 
Q 2709 -31 1944 -31 
Q 797 -31 288 881 
L 756 1131 
Q 1109 441 1938 441 
Q 2425 441 2694 691 
Q 2950 928 2950 1291 
Q 2950 1719 2566 1978 
Q 2216 2213 1644 2213 
L 1363 2213 
L 1363 2669 
L 1656 2669 
Q 2231 2669 2534 2888 
Q 2859 3119 2859 3509 
Q 2859 3934 2494 4138 
Q 2259 4278 1931 4278 
Q 1238 4278 903 3578 
L 434 3803 
Q 897 4725 1938 4725 
Q 2597 4725 3006 4394 
Q 3416 4069 3416 3534 
Q 3416 3028 3019 2706 
Q 2763 2500 2381 2444 
L 2381 2419 
z
" transform="scale(0.015625)"/>
       </defs>
       <use xlink:href="#IPAexGothic-33"/>
       <use xlink:href="#IPAexGothic-30" transform="translate(62.988281 0)"/>
       <use xlink:href="#IPAexGothic-30" transform="translate(125.976562 0)"/>
      </g>
     </g>
    </g>
    <g id="ytick_3">
     <g id="line2d_15">
      <path d="M 221.4 108.498462 
C 206.999379 108.498462 192.738785 111.33507 179.434346 116.845949 
C 166.129907 122.356828 154.040359 130.434806 143.857583 140.617583 
C 133.674806 150.800359 125.596828 162.889907 120.085949 176.194346 
C 114.57507 189.498785 111.738462 203.759379 111.738462 218.16 
C 111.738462 232.560621 114.57507 246.821215 120.085949 260.125654 
C 125.596828 273.430093 133.674806 285.519641 143.857583 295.702417 
C 154.040359 305.885194 166.129907 313.963172 179.434346 319.474051 
C 192.738785 324.98493 206.999379 327.821538 221.4 327.821538 
C 235.800621 327.821538 250.061215 324.98493 263.365654 319.474051 
C 276.670093 313.963172 288.759641 305.885194 298.942417 295.702417 
C 309.125194 285.519641 317.203172 273.430093 322.714051 260.125654 
C 328.22493 246.821215 331.061538 232.560621 331.061538 218.16 
C 331.061538 203.759379 328.22493 189.498785 322.714051 176.194346 
C 317.203172 162.889907 309.125194 150.800359 298.942417 140.617583 
C 288.759641 130.434806 276.670093 122.356828 263.365654 116.845949 
C 250.061215 111.33507 235.800621 108.498462 221.4 108.498462 
" clip-path="url(#pbbe982ec1d)" style="fill: none; stroke: #b0b0b0; stroke-width: 0.8; stroke-linecap: square"/>
     </g>
     <g id="text_9">
      <!-- 450 -->
      <g transform="translate(111.738462 216.26) scale(0.1 -0.1)">
       <defs>
        <path id="IPAexGothic-34" d="M 3813 1159 
L 3059 1159 
L 3059 63 
L 2547 63 
L 2547 1159 
L 197 1159 
L 197 1672 
L 2456 4678 
L 3059 4678 
L 3059 1634 
L 3813 1634 
L 3813 1159 
z
M 2578 4109 
L 2559 4109 
Q 2278 3656 2003 3284 
L 759 1634 
L 2547 1634 
L 2547 3144 
Q 2547 3481 2578 4109 
z
" transform="scale(0.015625)"/>
       </defs>
       <use xlink:href="#IPAexGothic-34"/>
       <use xlink:href="#IPAexGothic-35" transform="translate(62.988281 0)"/>
       <use xlink:href="#IPAexGothic-30" transform="translate(125.976562 0)"/>
      </g>
     </g>
    </g>
    <g id="ytick_4">
     <g id="line2d_16">
      <path d="M 221.4 71.944615 
C 202.199172 71.944615 183.185047 75.72676 165.445795 83.074599 
C 147.706542 90.422438 131.587146 101.193074 118.01011 114.77011 
C 104.433074 128.347146 93.662438 144.466542 86.314599 162.205795 
C 78.96676 179.945047 75.184615 198.959172 75.184615 218.16 
C 75.184615 237.360828 78.96676 256.374953 86.314599 274.114205 
C 93.662438 291.853458 104.433074 307.972854 118.01011 321.54989 
C 131.587146 335.126926 147.706542 345.897562 165.445795 353.245401 
C 183.185047 360.59324 202.199172 364.375385 221.4 364.375385 
C 240.600828 364.375385 259.614953 360.59324 277.354205 353.245401 
C 295.093458 345.897562 311.212854 335.126926 324.78989 321.54989 
C 338.366926 307.972854 349.137562 291.853458 356.485401 274.114205 
C 363.83324 256.374953 367.615385 237.360828 367.615385 218.16 
C 367.615385 198.959172 363.83324 179.945047 356.485401 162.205795 
C 349.137562 144.466542 338.366926 128.347146 324.78989 114.77011 
C 311.212854 101.193074 295.093458 90.422438 277.354205 83.074599 
C 259.614953 75.72676 240.600828 71.944615 221.4 71.944615 
" clip-path="url(#pbbe982ec1d)" style="fill: none; stroke: #b0b0b0; stroke-width: 0.8; stroke-linecap: square"/>
     </g>
     <g id="text_10">
      <!-- 600 -->
      <g transform="translate(75.184615 216.26) scale(0.1 -0.1)">
       <defs>
        <path id="IPAexGothic-36" d="M 1056 2328 
Q 1509 2981 2234 2981 
Q 2906 2981 3316 2513 
Q 3675 2106 3675 1522 
Q 3675 884 3272 434 
Q 2853 -31 2178 -31 
Q 1375 -31 922 581 
Q 481 1178 481 2228 
Q 481 3425 1013 4109 
Q 1494 4725 2272 4725 
Q 3191 4725 3609 4025 
L 3150 3775 
Q 2894 4266 2300 4266 
Q 1119 4266 1031 2328 
L 1056 2328 
z
M 2141 2547 
Q 1684 2547 1384 2206 
Q 1116 1900 1116 1541 
Q 1116 1156 1353 844 
Q 1672 428 2159 428 
Q 2669 428 2941 844 
Q 3125 1128 3125 1503 
Q 3125 1944 2881 2228 
Q 2600 2547 2141 2547 
z
" transform="scale(0.015625)"/>
       </defs>
       <use xlink:href="#IPAexGothic-36"/>
       <use xlink:href="#IPAexGothic-30" transform="translate(62.988281 0)"/>
       <use xlink:href="#IPAexGothic-30" transform="translate(125.976562 0)"/>
      </g>
     </g>
    </g>
   </g>
   <g id="text_11">
    <!-- スタッツ -->
    <g transform="translate(197.4 27.144687) scale(0.12 -0.12)">
     <defs>
      <path id="IPAexGothic-30b9" d="M 4359 4481 
L 4716 4147 
Q 4328 3072 3647 2150 
Q 4659 1434 5659 453 
L 5234 19 
Q 4256 1088 3353 1778 
Q 2372 597 1044 -31 
L 653 403 
Q 3128 1453 4097 4000 
L 1241 3963 
L 1228 4453 
L 4359 4481 
z
" transform="scale(0.015625)"/>
      <path id="IPAexGothic-30bf" d="M 4978 4263 
L 5313 3988 
Q 4797 2431 4056 1459 
Q 3191 325 1822 -300 
L 1466 109 
Q 2131 381 2613 738 
Q 3053 1066 3531 1600 
Q 2919 2225 2144 2791 
Q 1603 2203 1172 1875 
L 825 2234 
Q 2316 3328 2866 5031 
L 3359 4897 
Q 3325 4775 3109 4263 
L 4978 4263 
z
M 2894 3816 
Q 2709 3522 2438 3169 
Q 3194 2616 3841 2003 
Q 4366 2806 4747 3816 
L 2894 3816 
z
" transform="scale(0.015625)"/>
      <path id="IPAexGothic-30c3" d="M 1775 1984 
Q 1553 2666 1275 3175 
L 1716 3391 
Q 2034 2866 2247 2209 
L 1775 1984 
z
M 3003 2297 
Q 2813 2978 2522 3469 
L 2978 3681 
Q 3291 3166 3484 2522 
L 3003 2297 
z
M 1928 372 
Q 3094 744 3731 1569 
Q 4275 2263 4469 3525 
L 4975 3406 
Q 4734 1975 4016 1119 
Q 3406 391 2266 -44 
L 1928 372 
z
" transform="scale(0.015625)"/>
      <path id="IPAexGothic-30c4" d="M 1453 2591 
Q 1197 3459 838 4116 
L 1356 4331 
Q 1734 3647 2003 2841 
L 1453 2591 
z
M 2956 2963 
Q 2741 3763 2353 4494 
L 2866 4706 
Q 3234 4031 3500 3200 
L 2956 2963 
z
M 1894 294 
Q 3550 928 4244 2272 
Q 4678 3109 4900 4538 
L 5453 4366 
Q 5166 2584 4434 1519 
Q 3722 463 2266 -147 
L 1894 294 
z
" transform="scale(0.015625)"/>
     </defs>
     <use xlink:href="#IPAexGothic-30b9"/>
     <use xlink:href="#IPAexGothic-30bf" transform="translate(100 0)"/>
     <use xlink:href="#IPAexGothic-30c3" transform="translate(200 0)"/>
     <use xlink:href="#IPAexGothic-30c4" transform="translate(300 0)"/>
    </g>
   </g>
   <g id="legend_1">
    <g id="patch_10">
     <path d="M 175.4 379.48 
L 267.4 379.48 
Q 269.4 379.48 269.4 377.48 
L 269.4 289.047188 
Q 269.4 287.047188 267.4 287.047188 
L 175.4 287.047188 
Q 173.4 287.047188 173.4 289.047188 
L 173.4 377.48 
Q 173.4 379.48 175.4 379.48 
z
" style="fill: #fffff0; opacity: 0.8; stroke: #cccccc; stroke-linejoin: miter"/>
    </g>
    <g id="line2d_17">
     <path d="M 177.4 295.637812 
L 187.4 295.637812 
L 197.4 295.637812 
" style="fill: none; stroke: #6495ed; stroke-width: 1.5; stroke-linecap: square"/>
    </g>
    <g id="text_12">
     <!-- 氷水 (min) -->
     <g transform="translate(205.4 299.137812) scale(0.1 -0.1)">
      <defs>
       <path id="IPAexGothic-6c37" d="M 3469 4238 
Q 3594 3469 3891 2925 
Q 4641 3541 5241 4325 
L 5684 4000 
Q 5009 3231 4116 2547 
Q 4900 1409 6106 666 
L 5734 219 
Q 4034 1397 3469 2963 
L 3469 19 
Q 3469 -447 2872 -447 
Q 2466 -447 2072 -403 
L 1975 97 
Q 2466 22 2816 22 
Q 3000 22 3000 206 
L 3000 5222 
L 3469 5222 
L 3469 4238 
z
M 2081 3681 
Q 1447 4219 884 4525 
L 1203 4872 
Q 1888 4497 2406 4044 
L 2081 3681 
z
M 475 3384 
L 2413 3384 
L 2631 3166 
Q 2356 2113 1881 1369 
Q 1444 688 659 72 
L 269 428 
Q 1591 1338 2075 2969 
L 475 2969 
L 475 3384 
z
" transform="scale(0.015625)"/>
       <path id="IPAexGothic-6c34" d="M 3469 4219 
Q 3594 3556 3853 3028 
Q 4581 3613 5184 4359 
L 5594 4044 
Q 4944 3297 4056 2650 
Q 4800 1447 6059 728 
L 5728 275 
Q 4016 1394 3469 2994 
L 3469 63 
Q 3469 -391 2872 -391 
Q 2484 -391 2059 -347 
L 1969 153 
Q 2459 78 2816 78 
Q 3000 78 3000 263 
L 3000 5228 
L 3469 5228 
L 3469 4219 
z
M 563 3794 
L 2438 3794 
L 2647 3569 
Q 2475 2638 2181 2003 
Q 1706 984 697 109 
L 319 475 
Q 1809 1578 2156 3366 
L 563 3366 
L 563 3794 
z
" transform="scale(0.015625)"/>
       <path id="IPAexGothic-20" transform="scale(0.015625)"/>
       <path id="IPAexGothic-28" d="M 1928 -1016 
L 1653 -1166 
Q 488 69 488 1875 
Q 488 3678 1653 4909 
L 1928 4763 
Q 1006 3522 1006 1881 
Q 1006 203 1928 -1016 
z
" transform="scale(0.015625)"/>
       <path id="IPAexGothic-6d" d="M 5022 63 
L 4472 63 
L 4472 2059 
Q 4472 2869 3847 2869 
Q 3550 2869 3303 2594 
Q 3128 2397 3059 2103 
L 3059 63 
L 2509 63 
L 2509 2066 
Q 2509 2869 1919 2869 
Q 1606 2869 1369 2594 
Q 1113 2306 1113 2041 
L 1113 63 
L 563 63 
L 563 3250 
L 1075 3250 
L 1075 2700 
Q 1391 3316 2028 3316 
Q 2725 3316 2956 2647 
Q 3303 3316 3953 3316 
Q 4478 3316 4772 2944 
Q 5022 2638 5022 2072 
L 5022 63 
z
" transform="scale(0.015625)"/>
       <path id="IPAexGothic-69" d="M 1178 3928 
L 550 3928 
L 550 4569 
L 1178 4569 
L 1178 3928 
z
M 1138 63 
L 588 63 
L 588 3250 
L 1138 3250 
L 1138 63 
z
" transform="scale(0.015625)"/>
       <path id="IPAexGothic-6e" d="M 3328 63 
L 2778 63 
L 2778 2041 
Q 2778 2853 2106 2853 
Q 1428 2853 1113 2041 
L 1113 63 
L 563 63 
L 563 3250 
L 1075 3250 
L 1075 2675 
Q 1525 3316 2222 3316 
Q 3328 3316 3328 2072 
L 3328 63 
z
" transform="scale(0.015625)"/>
       <path id="IPAexGothic-29" d="M 466 4909 
Q 1638 3672 1638 1875 
Q 1638 75 466 -1166 
L 191 -1016 
Q 1119 216 1119 1881 
Q 1119 3509 191 4763 
L 466 4909 
z
" transform="scale(0.015625)"/>
      </defs>
      <use xlink:href="#IPAexGothic-6c37"/>
      <use xlink:href="#IPAexGothic-6c34" transform="translate(100 0)"/>
      <use xlink:href="#IPAexGothic-20" transform="translate(200 0)"/>
      <use xlink:href="#IPAexGothic-28" transform="translate(227.001953 0)"/>
      <use xlink:href="#IPAexGothic-6d" transform="translate(260.302734 0)"/>
      <use xlink:href="#IPAexGothic-69" transform="translate(347.412109 0)"/>
      <use xlink:href="#IPAexGothic-6e" transform="translate(374.414062 0)"/>
      <use xlink:href="#IPAexGothic-29" transform="translate(434.814453 0)"/>
     </g>
    </g>
    <g id="line2d_18">
     <path d="M 177.4 310.731562 
L 187.4 310.731562 
L 197.4 310.731562 
" style="fill: none; stroke: #90ee90; stroke-width: 1.5; stroke-linecap: square"/>
    </g>
    <g id="text_13">
     <!-- 自然 (min) -->
     <g transform="translate(205.4 314.231562) scale(0.1 -0.1)">
      <defs>
       <path id="IPAexGothic-81ea" d="M 2591 4353 
Q 2719 4766 2816 5294 
L 3359 5191 
Q 3250 4809 3072 4353 
L 5291 4353 
L 5291 -450 
L 4822 -450 
L 4822 -72 
L 1569 -72 
L 1569 -450 
L 1100 -450 
L 1100 4353 
L 2591 4353 
z
M 1569 3956 
L 1569 3028 
L 4822 3028 
L 4822 3956 
L 1569 3956 
z
M 1569 2644 
L 1569 1716 
L 4822 1716 
L 4822 2644 
L 1569 2644 
z
M 1569 1331 
L 1569 325 
L 4822 325 
L 4822 1331 
L 1569 1331 
z
" transform="scale(0.015625)"/>
       <path id="IPAexGothic-7136" d="M 1047 3103 
L 1013 3066 
Q 919 2944 644 2669 
L 363 3006 
Q 1294 3881 1609 5288 
L 2056 5184 
Q 2028 5081 1988 4944 
Q 1941 4794 1934 4775 
L 2953 4775 
L 3222 4569 
Q 3159 4231 3056 3903 
L 3888 3903 
L 3888 5209 
L 4328 5209 
L 4328 3903 
L 5850 3903 
L 5850 3519 
L 4431 3519 
Q 4866 2256 5997 1613 
L 5647 1216 
Q 5084 1631 4597 2328 
Q 4328 2713 4175 3172 
Q 3934 1794 2734 1113 
L 2422 1459 
Q 3681 2113 3863 3519 
L 2916 3519 
Q 2288 1900 791 1063 
L 469 1413 
Q 1209 1769 1738 2372 
Q 1431 2756 1047 3103 
z
M 1263 3391 
Q 1597 3144 2006 2713 
Q 2159 2938 2294 3178 
Q 1919 3494 1488 3750 
Q 1403 3591 1263 3391 
z
M 2478 3569 
Q 2647 3975 2722 4391 
L 1800 4391 
Q 1731 4222 1659 4069 
Q 2131 3828 2478 3569 
z
M 5209 4128 
Q 4963 4559 4647 4884 
L 4994 5113 
Q 5303 4825 5581 4378 
L 5209 4128 
z
M 500 -172 
Q 950 316 1250 978 
L 1659 800 
Q 1341 50 903 -494 
L 500 -172 
z
M 2453 -434 
Q 2381 294 2228 819 
L 2656 922 
Q 2859 369 2966 -319 
L 2453 -434 
z
M 3853 -341 
Q 3672 363 3419 856 
L 3847 991 
Q 4109 569 4334 -178 
L 3853 -341 
z
M 5569 -366 
Q 5191 328 4713 878 
L 5097 1069 
Q 5634 538 6009 -91 
L 5569 -366 
z
" transform="scale(0.015625)"/>
      </defs>
      <use xlink:href="#IPAexGothic-81ea"/>
      <use xlink:href="#IPAexGothic-7136" transform="translate(100 0)"/>
      <use xlink:href="#IPAexGothic-20" transform="translate(200 0)"/>
      <use xlink:href="#IPAexGothic-28" transform="translate(227.001953 0)"/>
      <use xlink:href="#IPAexGothic-6d" transform="translate(260.302734 0)"/>
      <use xlink:href="#IPAexGothic-69" transform="translate(347.412109 0)"/>
      <use xlink:href="#IPAexGothic-6e" transform="translate(374.414062 0)"/>
      <use xlink:href="#IPAexGothic-29" transform="translate(434.814453 0)"/>
     </g>
    </g>
    <g id="line2d_19">
     <path d="M 177.4 325.6925 
L 187.4 325.6925 
L 197.4 325.6925 
" style="fill: none; stroke: #ff4500; stroke-width: 1.5; stroke-linecap: square"/>
    </g>
    <g id="text_14">
     <!-- 火炎 (min) -->
     <g transform="translate(205.4 329.1925) scale(0.1 -0.1)">
      <defs>
       <path id="IPAexGothic-706b" d="M 3425 5147 
L 3425 4044 
Q 3425 1303 5978 197 
L 5600 -244 
Q 3691 725 3219 2584 
Q 2903 363 819 -378 
L 475 44 
Q 1847 438 2394 1447 
Q 2925 2422 2925 3969 
L 2925 5147 
L 3425 5147 
z
M 794 2144 
Q 1325 2953 1525 3938 
L 2025 3834 
Q 1728 2644 1244 1856 
L 794 2144 
z
M 4169 2344 
Q 4778 3203 5178 4159 
L 5691 3938 
Q 5191 2906 4578 2119 
L 4169 2344 
z
" transform="scale(0.015625)"/>
       <path id="IPAexGothic-708e" d="M 3419 2772 
L 3419 2413 
Q 3419 716 5984 109 
L 5663 -353 
Q 3691 234 3231 1375 
Q 3022 581 2334 128 
Q 1753 -253 716 -488 
L 416 -56 
Q 1791 144 2394 775 
Q 2931 1341 2931 2406 
L 2931 2772 
L 3419 2772 
z
M 3322 3916 
Q 4659 3288 5906 2491 
L 5541 2119 
Q 4375 2897 3194 3541 
Q 2722 2463 903 1972 
L 606 2394 
Q 1741 2616 2316 3122 
Q 2931 3672 2931 4716 
L 2931 5209 
L 3419 5209 
L 3419 4819 
Q 3419 4291 3322 3916 
z
M 1019 3544 
Q 1547 4075 1766 4756 
L 2228 4616 
Q 1953 3819 1375 3231 
L 1019 3544 
z
M 4013 3878 
Q 4547 4300 4991 4863 
L 5447 4622 
Q 5072 4181 4366 3609 
L 4013 3878 
z
M 1113 1044 
Q 1534 1484 1759 2138 
L 2206 2009 
Q 1975 1297 1509 750 
L 1113 1044 
z
M 4031 1294 
Q 4484 1744 4825 2297 
L 5272 2059 
Q 4822 1456 4403 1056 
L 4031 1294 
z
" transform="scale(0.015625)"/>
      </defs>
      <use xlink:href="#IPAexGothic-706b"/>
      <use xlink:href="#IPAexGothic-708e" transform="translate(100 0)"/>
      <use xlink:href="#IPAexGothic-20" transform="translate(200 0)"/>
      <use xlink:href="#IPAexGothic-28" transform="translate(227.001953 0)"/>
      <use xlink:href="#IPAexGothic-6d" transform="translate(260.302734 0)"/>
      <use xlink:href="#IPAexGothic-69" transform="translate(347.412109 0)"/>
      <use xlink:href="#IPAexGothic-6e" transform="translate(374.414062 0)"/>
      <use xlink:href="#IPAexGothic-29" transform="translate(434.814453 0)"/>
     </g>
    </g>
    <g id="line2d_20">
     <path d="M 177.4 340.565938 
L 187.4 340.565938 
L 197.4 340.565938 
" style="fill: none; stroke: #ffd700; stroke-width: 1.5; stroke-linecap: square"/>
    </g>
    <g id="text_15">
     <!-- 珍種 (min) -->
     <g transform="translate(205.4 344.065938) scale(0.1 -0.1)">
      <defs>
       <path id="IPAexGothic-73cd" d="M 1638 4319 
L 1638 2919 
L 2278 2919 
L 2278 2522 
L 1638 2522 
L 1638 1031 
L 1700 1056 
Q 2119 1184 2475 1319 
L 2522 922 
Q 1569 547 422 238 
L 256 684 
Q 759 784 1197 909 
L 1197 2522 
L 463 2522 
L 463 2919 
L 1197 2919 
L 1197 4319 
L 384 4319 
L 384 4722 
L 2516 4722 
L 2516 4319 
L 1638 4319 
z
M 2438 2119 
Q 3466 2578 4091 3519 
L 4469 3284 
Q 3794 2250 2719 1753 
L 2438 2119 
z
M 2197 3144 
Q 3250 3784 3750 5153 
L 4250 5153 
Q 4931 3959 6088 3206 
L 5753 2816 
Q 4575 3684 4019 4672 
Q 3559 3494 2516 2784 
L 2197 3144 
z
M 2669 1075 
Q 3991 1603 4763 2700 
L 5141 2450 
Q 4266 1253 2938 697 
L 2669 1075 
z
M 2509 -50 
Q 4397 419 5531 1925 
L 5919 1656 
Q 5059 506 3884 -56 
Q 3447 -272 2822 -469 
L 2509 -50 
z
" transform="scale(0.015625)"/>
       <path id="IPAexGothic-7a2e" d="M 1269 2366 
Q 959 1388 456 659 
L 238 1100 
Q 878 2028 1203 3128 
L 328 3128 
L 328 3531 
L 1269 3531 
L 1269 4453 
Q 919 4388 525 4338 
L 347 4703 
Q 1372 4850 2144 5131 
L 2484 4766 
Q 2019 4622 1691 4544 
L 1691 3531 
L 2419 3531 
L 2419 3128 
L 1691 3128 
L 1691 2669 
Q 2081 2350 2478 1913 
L 2203 1509 
Q 1934 1897 1691 2169 
L 1691 -450 
L 1269 -450 
L 1269 2366 
z
M 3963 3297 
L 3963 3703 
L 2350 3703 
L 2350 4063 
L 3963 4063 
L 3963 4497 
L 3872 4491 
Q 3219 4431 2722 4409 
L 2541 4784 
Q 4100 4831 5350 5119 
L 5678 4741 
Q 5128 4634 4378 4544 
L 4378 4063 
L 6013 4063 
L 6013 3703 
L 4378 3703 
L 4378 3297 
L 5641 3297 
L 5641 1313 
L 4378 1313 
L 4378 872 
L 5750 872 
L 5750 525 
L 4378 525 
L 4378 78 
L 6069 78 
L 6069 -288 
L 2297 -288 
L 2297 78 
L 3963 78 
L 3963 525 
L 2613 525 
L 2613 872 
L 3963 872 
L 3963 1313 
L 2728 1313 
L 2728 3297 
L 3963 3297 
z
M 3975 2956 
L 3138 2956 
L 3138 2472 
L 3975 2472 
L 3975 2956 
z
M 4366 2956 
L 4366 2472 
L 5238 2472 
L 5238 2956 
L 4366 2956 
z
M 3975 2159 
L 3138 2159 
L 3138 1653 
L 3975 1653 
L 3975 2159 
z
M 4366 2159 
L 4366 1653 
L 5238 1653 
L 5238 2159 
L 4366 2159 
z
" transform="scale(0.015625)"/>
      </defs>
      <use xlink:href="#IPAexGothic-73cd"/>
      <use xlink:href="#IPAexGothic-7a2e" transform="translate(100 0)"/>
      <use xlink:href="#IPAexGothic-20" transform="translate(200 0)"/>
      <use xlink:href="#IPAexGothic-28" transform="translate(227.001953 0)"/>
      <use xlink:href="#IPAexGothic-6d" transform="translate(260.302734 0)"/>
      <use xlink:href="#IPAexGothic-69" transform="translate(347.412109 0)"/>
      <use xlink:href="#IPAexGothic-6e" transform="translate(374.414062 0)"/>
      <use xlink:href="#IPAexGothic-29" transform="translate(434.814453 0)"/>
     </g>
    </g>
    <g id="line2d_21">
     <path d="M 177.4 355.689375 
L 187.4 355.689375 
L 197.4 355.689375 
" style="fill: none; stroke: #000000; stroke-width: 1.5; stroke-linecap: square"/>
    </g>
    <g id="text_16">
     <!-- 暗黒 (min) -->
     <g transform="translate(205.4 359.189375) scale(0.1 -0.1)">
      <defs>
       <path id="IPAexGothic-6697" d="M 2166 4728 
L 2166 544 
L 891 544 
L 891 31 
L 488 31 
L 488 4728 
L 2166 4728 
z
M 891 4331 
L 891 2875 
L 1756 2875 
L 1756 4331 
L 891 4331 
z
M 891 2491 
L 891 934 
L 1756 934 
L 1756 2491 
L 891 2491 
z
M 4341 4500 
L 5794 4500 
L 5794 4128 
L 5184 4128 
Q 5053 3584 4866 3138 
L 6044 3138 
L 6044 2759 
L 2319 2759 
L 2319 3138 
L 3369 3138 
Q 3244 3719 3081 4128 
L 2538 4128 
L 2538 4500 
L 3894 4500 
L 3894 5313 
L 4341 5313 
L 4341 4500 
z
M 3522 4128 
Q 3666 3738 3803 3138 
L 4444 3138 
Q 4597 3541 4738 4128 
L 3522 4128 
z
M 5466 2284 
L 5466 -447 
L 5038 -447 
L 5038 -153 
L 3284 -153 
L 3284 -459 
L 2856 -459 
L 2856 2284 
L 5466 2284 
z
M 3284 1913 
L 3284 1281 
L 5038 1281 
L 5038 1913 
L 3284 1913 
z
M 3284 922 
L 3284 219 
L 5038 219 
L 5038 922 
L 3284 922 
z
" transform="scale(0.015625)"/>
       <path id="IPAexGothic-9ed2" d="M 5266 5013 
L 5266 2828 
L 3403 2828 
L 3403 2388 
L 5663 2388 
L 5663 2003 
L 3403 2003 
L 3403 1544 
L 6078 1544 
L 6078 1141 
L 319 1141 
L 319 1544 
L 2950 1544 
L 2950 2003 
L 722 2003 
L 722 2388 
L 2950 2388 
L 2950 2828 
L 1138 2828 
L 1138 5013 
L 5266 5013 
z
M 1578 4641 
L 1578 4103 
L 2950 4103 
L 2950 4641 
L 1578 4641 
z
M 1578 3744 
L 1578 3200 
L 2950 3200 
L 2950 3744 
L 1578 3744 
z
M 4813 3200 
L 4813 3744 
L 3403 3744 
L 3403 3200 
L 4813 3200 
z
M 4813 4103 
L 4813 4641 
L 3403 4641 
L 3403 4103 
L 4813 4103 
z
M 491 -166 
Q 953 316 1247 984 
L 1663 806 
Q 1325 41 894 -494 
L 491 -166 
z
M 2450 -441 
Q 2381 216 2219 819 
L 2647 922 
Q 2847 384 2963 -319 
L 2450 -441 
z
M 3831 -341 
Q 3638 394 3409 856 
L 3825 984 
Q 4125 450 4313 -184 
L 3831 -341 
z
M 5572 -366 
Q 5175 334 4709 878 
L 5088 1069 
Q 5616 569 6009 -84 
L 5572 -366 
z
" transform="scale(0.015625)"/>
      </defs>
      <use xlink:href="#IPAexGothic-6697"/>
      <use xlink:href="#IPAexGothic-9ed2" transform="translate(100 0)"/>
      <use xlink:href="#IPAexGothic-20" transform="translate(200 0)"/>
      <use xlink:href="#IPAexGothic-28" transform="translate(227.001953 0)"/>
      <use xlink:href="#IPAexGothic-6d" transform="translate(260.302734 0)"/>
      <use xlink:href="#IPAexGothic-69" transform="translate(347.412109 0)"/>
      <use xlink:href="#IPAexGothic-6e" transform="translate(374.414062 0)"/>
      <use xlink:href="#IPAexGothic-29" transform="translate(434.814453 0)"/>
     </g>
    </g>
    <g id="line2d_22">
     <path d="M 177.4 370.08 
L 187.4 370.08 
L 197.4 370.08 
" style="fill: none; stroke: #a52a2a; stroke-width: 1.5; stroke-linecap: square"/>
    </g>
    <g id="text_17">
     <!-- アカトリモン -->
     <g transform="translate(205.4 373.58) scale(0.1 -0.1)">
      <defs>
       <path id="IPAexGothic-30a2" d="M 5388 4556 
L 5747 4200 
Q 5081 3022 4019 2191 
L 3647 2547 
Q 4519 3178 5081 4091 
L 850 4013 
L 850 4500 
L 5388 4556 
z
M 1216 256 
Q 2319 813 2616 1691 
Q 2797 2200 2797 3628 
L 3313 3628 
Q 3303 1981 3059 1356 
Q 2697 431 1594 -153 
L 1216 256 
z
" transform="scale(0.015625)"/>
       <path id="IPAexGothic-30ab" d="M 2734 4981 
L 3247 4981 
L 3247 3694 
L 5250 3694 
L 5250 3491 
L 5250 3425 
Q 5250 1334 5019 500 
Q 4856 -84 4297 -84 
Q 3788 -84 3247 172 
L 3228 731 
Q 3859 441 4200 441 
Q 4484 441 4553 763 
Q 4706 1478 4738 3234 
L 3206 3234 
Q 3025 906 1159 -134 
L 769 263 
Q 2519 1134 2700 3209 
L 916 3209 
L 916 3669 
L 2734 3669 
L 2734 4981 
z
" transform="scale(0.015625)"/>
       <path id="IPAexGothic-30c8" d="M 2284 4997 
L 2803 4997 
L 2803 3206 
Q 4088 2619 5216 1888 
L 4878 1369 
Q 3819 2175 2803 2688 
L 2803 -184 
L 2284 -184 
L 2284 4997 
z
" transform="scale(0.015625)"/>
       <path id="IPAexGothic-30ea" d="M 1678 4788 
L 2222 4788 
L 2222 1900 
L 1678 1900 
L 1678 4788 
z
M 4084 4909 
L 4628 4909 
L 4628 2753 
Q 4628 1563 4150 794 
Q 3725 119 2772 -353 
L 2394 78 
Q 3334 494 3706 1094 
Q 4084 1703 4084 2725 
L 4084 4909 
z
" transform="scale(0.015625)"/>
       <path id="IPAexGothic-30e2" d="M 1216 4409 
L 5147 4409 
L 5147 3950 
L 3053 3950 
L 3053 2797 
L 5644 2797 
L 5644 2328 
L 3053 2328 
L 3053 972 
Q 3053 669 3272 600 
Q 3453 544 4013 544 
Q 4556 544 5269 600 
L 5269 97 
Q 4684 50 4147 50 
Q 3025 50 2753 250 
Q 2541 403 2541 825 
L 2541 2328 
L 744 2328 
L 744 2797 
L 2541 2797 
L 2541 3950 
L 1216 3950 
L 1216 4409 
z
" transform="scale(0.015625)"/>
       <path id="IPAexGothic-30f3" d="M 2444 3084 
Q 1816 3656 1056 4084 
L 1381 4519 
Q 2063 4191 2816 3559 
L 2444 3084 
z
M 1100 609 
Q 3984 1106 5216 3828 
L 5619 3469 
Q 4413 794 1434 103 
L 1100 609 
z
" transform="scale(0.015625)"/>
      </defs>
      <use xlink:href="#IPAexGothic-30a2"/>
      <use xlink:href="#IPAexGothic-30ab" transform="translate(100 0)"/>
      <use xlink:href="#IPAexGothic-30c8" transform="translate(200 0)"/>
      <use xlink:href="#IPAexGothic-30ea" transform="translate(300 0)"/>
      <use xlink:href="#IPAexGothic-30e2" transform="translate(400 0)"/>
      <use xlink:href="#IPAexGothic-30f3" transform="translate(500 0)"/>
     </g>
    </g>
   </g>
  </g>
 </g>
 <defs>
  <clipPath id="pbbe982ec1d">
   <path d="M 387.72 218.16 
C 387.72 196.319058 383.417811 174.690491 375.059644 154.512092 
C 366.701477 134.333692 354.449878 115.997879 339.006 100.554 
C 323.562121 85.110122 305.226308 72.858523 285.047908 64.500356 
C 264.869509 56.142189 243.240942 51.84 221.4 51.84 
C 199.559058 51.84 177.930491 56.142189 157.752092 64.500356 
C 137.573692 72.858523 119.237879 85.110122 103.794 100.554 
C 88.350122 115.997879 76.098523 134.333692 67.740356 154.512092 
C 59.382189 174.690491 55.08 196.319058 55.08 218.16 
C 55.08 240.000942 59.382189 261.629509 67.740356 281.807908 
C 76.098523 301.986308 88.350122 320.322121 103.794 335.766 
C 119.237879 351.209878 137.573692 363.461477 157.752092 371.819644 
C 177.930491 380.177811 199.559058 384.48 221.4 384.48 
C 243.240942 384.48 264.869509 380.177811 285.047908 371.819644 
C 305.226308 363.461477 323.562121 351.209878 339.006 335.766 
C 354.449878 320.322121 366.701477 301.986308 375.059644 281.807908 
C 383.417811 261.629509 387.72 240.000942 387.72 218.16 
M 221.4 218.16 
C 221.4 218.16 221.4 218.16 221.4 218.16 
C 221.4 218.16 221.4 218.16 221.4 218.16 
C 221.4 218.16 221.4 218.16 221.4 218.16 
C 221.4 218.16 221.4 218.16 221.4 218.16 
C 221.4 218.16 221.4 218.16 221.4 218.16 
C 221.4 218.16 221.4 218.16 221.4 218.16 
C 221.4 218.16 221.4 218.16 221.4 218.16 
C 221.4 218.16 221.4 218.16 221.4 218.16 
C 221.4 218.16 221.4 218.16 221.4 218.16 
C 221.4 218.16 221.4 218.16 221.4 218.16 
C 221.4 218.16 221.4 218.16 221.4 218.16 
C 221.4 218.16 221.4 218.16 221.4 218.16 
C 221.4 218.16 221.4 218.16 221.4 218.16 
C 221.4 218.16 221.4 218.16 221.4 218.16 
C 221.4 218.16 221.4 218.16 221.4 218.16 
C 221.4 218.16 221.4 218.16 221.4 218.16 
z
"/>
  </clipPath>
 </defs>
</svg>
