<?xml version="1.0" encoding="utf-8" standalone="no"?>
<!DOCTYPE svg PUBLIC "-//W3C//DTD SVG 1.1//EN"
  "http://www.w3.org/Graphics/SVG/1.1/DTD/svg11.dtd">
<svg xmlns:xlink="http://www.w3.org/1999/xlink" width="432pt" height="432pt" viewBox="0 0 432 432" xmlns="http://www.w3.org/2000/svg" version="1.1">
 <metadata>
  <rdf:RDF xmlns:dc="http://purl.org/dc/elements/1.1/" xmlns:cc="http://creativecommons.org/ns#" xmlns:rdf="http://www.w3.org/1999/02/22-rdf-syntax-ns#">
   <cc:Work>
    <dc:type rdf:resource="http://purl.org/dc/dcmitype/StillImage"/>
    <dc:date>2025-07-23T08:24:35.974735</dc:date>
    <dc:format>image/svg+xml</dc:format>
    <dc:creator>
     <cc:Agent>
      <dc:title>Matplotlib v3.10.3, https://matplotlib.org/</dc:title>
     </cc:Agent>
    </dc:creator>
   </cc:Work>
  </rdf:RDF>
 </metadata>
 <defs>
  <style type="text/css">*{stroke-linejoin: round; stroke-linecap: butt}</style>
 </defs>
 <g id="figure_1">
  <g id="patch_1">
   <path d="M 0 432 
L 432 432 
L 432 0 
L 0 0 
L 0 432 
z
" style="fill: none"/>
  </g>
  <g id="axes_1">
   <g id="patch_2">
    <path d="M 387.72 218.16 
C 387.72 196.319058 383.417811 174.690491 375.059644 154.512092 
C 366.701477 134.333692 354.449878 115.997879 339.006 100.554 
C 323.562121 85.110122 305.226308 72.858523 285.047908 64.500356 
C 264.869509 56.142189 243.240942 51.84 221.4 51.84 
C 199.559058 51.84 177.930491 56.142189 157.752092 64.500356 
C 137.573692 72.858523 119.237879 85.110122 103.794 100.554 
C 88.350122 115.997879 76.098523 134.333692 67.740356 154.512092 
C 59.382189 174.690491 55.08 196.319058 55.08 218.16 
C 55.08 240.000942 59.382189 261.629509 67.740356 281.807908 
C 76.098523 301.986308 88.350122 320.322121 103.794 335.766 
C 119.237879 351.209878 137.573692 363.461477 157.752092 371.819644 
C 177.930491 380.177811 199.559058 384.48 221.4 384.48 
C 243.240942 384.48 264.869509 380.177811 285.047908 371.819644 
C 305.226308 363.461477 323.562121 351.209878 339.006 335.766 
C 354.449878 320.322121 366.701477 301.986308 375.059644 281.807908 
C 383.417811 261.629509 387.72 240.000942 387.72 218.16 
M 221.4 218.16 
C 221.4 218.16 221.4 218.16 221.4 218.16 
C 221.4 218.16 221.4 218.16 221.4 218.16 
C 221.4 218.16 221.4 218.16 221.4 218.16 
C 221.4 218.16 221.4 218.16 221.4 218.16 
C 221.4 218.16 221.4 218.16 221.4 218.16 
C 221.4 218.16 221.4 218.16 221.4 218.16 
C 221.4 218.16 221.4 218.16 221.4 218.16 
C 221.4 218.16 221.4 218.16 221.4 218.16 
C 221.4 218.16 221.4 218.16 221.4 218.16 
C 221.4 218.16 221.4 218.16 221.4 218.16 
C 221.4 218.16 221.4 218.16 221.4 218.16 
C 221.4 218.16 221.4 218.16 221.4 218.16 
C 221.4 218.16 221.4 218.16 221.4 218.16 
C 221.4 218.16 221.4 218.16 221.4 218.16 
C 221.4 218.16 221.4 218.16 221.4 218.16 
C 221.4 218.16 221.4 218.16 221.4 218.16 
L 221.4 218.16 
z
" style="fill: none"/>
   </g>
   <g id="patch_3">
    <path d="M 221.4 59.700679 
L 173.391148 190.442076 
L 219.781724 219.094312 
L 221.4 221.398948 
L 238.44584 228.00142 
L 255.168024 198.664022 
z
" clip-path="url(#p557ee22e42)" style="fill: #6495ed; opacity: 0.4; stroke: #6495ed; stroke-linejoin: miter"/>
   </g>
   <g id="patch_4">
    <path d="M 221.4 96.82401 
L 167.67324 187.14084 
L 219.026529 219.530324 
L 221.4 221.398948 
L 242.006047 230.056907 
L 257.109955 197.542848 
z
" clip-path="url(#p557ee22e42)" style="fill: #90ee90; opacity: 0.4; stroke: #90ee90; stroke-linejoin: miter"/>
   </g>
   <g id="patch_5">
    <path d="M 221.4 105.045956 
L 160.768596 183.154442 
L 219.889609 219.032025 
L 221.4 221.274373 
L 237.474874 227.440833 
L 264.230369 193.431875 
z
" clip-path="url(#p557ee22e42)" style="fill: #ff4500; opacity: 0.4; stroke: #ff4500; stroke-linejoin: miter"/>
   </g>
   <g id="patch_6">
    <path d="M 221.4 59.949828 
L 178.245976 193.245012 
L 220.321149 218.782875 
L 221.4 224.388747 
L 244.055863 231.240369 
L 252.686668 200.096634 
z
" clip-path="url(#p557ee22e42)" style="fill: #a52a2a; opacity: 0.4; stroke: #a52a2a; stroke-linejoin: miter"/>
   </g>
   <g id="line2d_1">
    <path d="M 221.4 59.700679 
L 173.391148 190.442076 
L 219.781724 219.094312 
L 221.4 221.398948 
L 238.44584 228.00142 
L 255.168024 198.664022 
L 221.4 59.700679 
" clip-path="url(#p557ee22e42)" style="fill: none; stroke: #6495ed; stroke-width: 1.5; stroke-linecap: square"/>
   </g>
   <g id="line2d_2">
    <path d="M 221.4 96.82401 
L 167.67324 187.14084 
L 219.026529 219.530324 
L 221.4 221.398948 
L 242.006047 230.056907 
L 257.109955 197.542848 
L 221.4 96.82401 
" clip-path="url(#p557ee22e42)" style="fill: none; stroke: #90ee90; stroke-width: 1.5; stroke-linecap: square"/>
   </g>
   <g id="line2d_3">
    <path d="M 221.4 105.045956 
L 160.768596 183.154442 
L 219.889609 219.032025 
L 221.4 221.274373 
L 237.474874 227.440833 
L 264.230369 193.431875 
L 221.4 105.045956 
" clip-path="url(#p557ee22e42)" style="fill: none; stroke: #ff4500; stroke-width: 1.5; stroke-linecap: square"/>
   </g>
   <g id="line2d_4">
    <path d="M 221.4 59.949828 
L 178.245976 193.245012 
L 220.321149 218.782875 
L 221.4 224.388747 
L 244.055863 231.240369 
L 252.686668 200.096634 
L 221.4 59.949828 
" clip-path="url(#p557ee22e42)" style="fill: none; stroke: #a52a2a; stroke-width: 1.5; stroke-linecap: square"/>
   </g>
   <g id="patch_7">
    <path d="M 221.4 51.84 
C 199.559058 51.84 177.930491 56.142189 157.752092 64.500356 
C 137.573692 72.858523 119.237879 85.110122 103.794 100.554 
C 88.350122 115.997879 76.098523 134.333692 67.740356 154.512092 
C 59.382189 174.690491 55.08 196.319058 55.08 218.16 
C 55.08 240.000942 59.382189 261.629509 67.740356 281.807908 
C 76.098523 301.986308 88.350122 320.322121 103.794 335.766 
C 119.237879 351.209878 137.573692 363.461477 157.752092 371.819644 
C 177.930491 380.177811 199.559058 384.48 221.4 384.48 
C 243.240942 384.48 264.869509 380.177811 285.047908 371.819644 
C 305.226308 363.461477 323.562121 351.209878 339.006 335.766 
C 354.449878 320.322121 366.701477 301.986308 375.059644 281.807908 
C 383.417811 261.629509 387.72 240.000942 387.72 218.16 
C 387.72 196.319058 383.417811 174.690491 375.059644 154.512092 
C 366.701477 134.333692 354.449878 115.997879 339.006 100.554 
C 323.562121 85.110122 305.226308 72.858523 285.047908 64.500356 
C 264.869509 56.142189 243.240942 51.84 221.4 51.84 
" style="fill: none; stroke: #000000; stroke-width: 0.8; stroke-linejoin: miter; stroke-linecap: square"/>
   </g>
   <g id="matplotlib.axis_1">
    <g id="xtick_1">
     <g id="line2d_5">
      <path d="M 221.4 218.16 
L 221.4 51.84 
" clip-path="url(#p557ee22e42)" style="fill: none; stroke: #b0b0b0; stroke-width: 0.8; stroke-linecap: square"/>
     </g>
     <g id="text_1">
      <!-- hp -->
      <g transform="translate(215.260156 40.635312) scale(0.1 -0.1)">
       <defs>
        <path id="IPAexGothic-68" d="M 3347 63 
L 2797 63 
L 2797 2041 
Q 2797 2853 2131 2853 
Q 1447 2853 1131 2041 
L 1131 63 
L 581 63 
L 581 4794 
L 1131 4794 
L 1131 2706 
Q 1566 3316 2247 3316 
Q 3347 3316 3347 2072 
L 3347 63 
z
" transform="scale(0.015625)"/>
        <path id="IPAexGothic-70" d="M 1075 2688 
Q 1525 3341 2206 3341 
Q 2769 3341 3172 2938 
Q 3641 2469 3641 1644 
Q 3641 841 3178 372 
Q 2775 -31 2200 -31 
Q 1569 -31 1106 497 
L 1106 -1216 
L 563 -1216 
L 563 3250 
L 1075 3250 
L 1075 2688 
z
M 1106 1950 
L 1106 1291 
Q 1106 897 1516 600 
Q 1791 403 2106 403 
Q 2469 403 2725 659 
Q 3066 997 3066 1631 
Q 3066 2200 2784 2559 
Q 2503 2900 2100 2900 
Q 1656 2900 1338 2484 
Q 1106 2184 1106 1950 
z
" transform="scale(0.015625)"/>
       </defs>
       <use xlink:href="#IPAexGothic-68"/>
       <use xlink:href="#IPAexGothic-70" transform="translate(60.693359 0)"/>
      </g>
     </g>
    </g>
    <g id="xtick_2">
     <g id="line2d_6">
      <path d="M 221.4 218.16 
L 77.362655 135 
" clip-path="url(#p557ee22e42)" style="fill: none; stroke: #b0b0b0; stroke-width: 0.8; stroke-linecap: square"/>
     </g>
     <g id="text_2">
      <!-- circle -->
      <g transform="translate(52.403924 130.795312) scale(0.1 -0.1)">
       <defs>
        <path id="IPAexGothic-63" d="M 3269 784 
Q 2834 -31 1900 -31 
Q 1228 -31 788 409 
Q 313 891 313 1663 
Q 313 2428 788 2913 
Q 1222 3347 1881 3347 
Q 2813 3347 3206 2541 
L 2763 2309 
Q 2484 2900 1900 2900 
Q 1516 2900 1234 2619 
Q 881 2266 881 1650 
Q 881 1069 1222 728 
Q 1522 428 1956 428 
Q 2547 428 2847 1016 
L 3269 784 
z
" transform="scale(0.015625)"/>
        <path id="IPAexGothic-69" d="M 1178 3928 
L 550 3928 
L 550 4569 
L 1178 4569 
L 1178 3928 
z
M 1138 63 
L 588 63 
L 588 3250 
L 1138 3250 
L 1138 63 
z
" transform="scale(0.015625)"/>
        <path id="IPAexGothic-72" d="M 2309 3316 
L 2213 2769 
Q 2106 2791 2022 2791 
Q 1653 2791 1413 2444 
Q 1113 2006 1113 1675 
L 1113 63 
L 563 63 
L 563 3250 
L 1081 3250 
L 1056 2303 
L 1069 2303 
Q 1422 3341 2097 3341 
Q 2206 3341 2309 3316 
z
" transform="scale(0.015625)"/>
        <path id="IPAexGothic-6c" d="M 1131 63 
L 581 63 
L 581 4794 
L 1131 4794 
L 1131 63 
z
" transform="scale(0.015625)"/>
        <path id="IPAexGothic-65" d="M 863 1594 
Q 891 1041 1209 722 
Q 1534 397 1997 397 
Q 2606 397 2963 966 
L 3322 728 
Q 2869 -31 1931 -31 
Q 1222 -31 766 422 
Q 306 884 306 1641 
Q 306 2444 788 2925 
Q 1216 3353 1856 3353 
Q 2459 3353 2866 2956 
Q 3322 2494 3322 1722 
L 3322 1594 
L 863 1594 
z
M 2756 1997 
Q 2709 2431 2450 2681 
Q 2194 2938 1844 2938 
Q 1438 2938 1150 2591 
Q 953 2356 894 1997 
L 2756 1997 
z
" transform="scale(0.015625)"/>
       </defs>
       <use xlink:href="#IPAexGothic-63"/>
       <use xlink:href="#IPAexGothic-69" transform="translate(54.394531 0)"/>
       <use xlink:href="#IPAexGothic-72" transform="translate(81.396484 0)"/>
       <use xlink:href="#IPAexGothic-63" transform="translate(118.408203 0)"/>
       <use xlink:href="#IPAexGothic-6c" transform="translate(172.802734 0)"/>
       <use xlink:href="#IPAexGothic-65" transform="translate(199.804688 0)"/>
      </g>
     </g>
    </g>
    <g id="xtick_3">
     <g id="line2d_7">
      <path d="M 221.4 218.16 
L 77.362655 301.32 
" clip-path="url(#p557ee22e42)" style="fill: none; stroke: #b0b0b0; stroke-width: 0.8; stroke-linecap: square"/>
     </g>
     <g id="text_3">
      <!-- pow -->
      <g transform="translate(55.352362 311.115312) scale(0.1 -0.1)">
       <defs>
        <path id="IPAexGothic-6f" d="M 1919 3341 
Q 2594 3341 3056 2888 
Q 3531 2413 3531 1638 
Q 3531 888 3066 422 
Q 2609 -31 1919 -31 
Q 1228 -31 781 416 
Q 313 881 313 1656 
Q 313 2413 788 2888 
Q 1241 3341 1919 3341 
z
M 1919 2919 
Q 1519 2919 1241 2631 
Q 888 2278 888 1650 
Q 888 1031 1234 684 
Q 1516 403 1919 403 
Q 2331 403 2609 691 
Q 2956 1038 2956 1672 
Q 2956 2269 2603 2631 
Q 2316 2919 1919 2919 
z
" transform="scale(0.015625)"/>
        <path id="IPAexGothic-77" d="M 4772 3250 
L 3666 6 
L 3281 6 
L 2609 1919 
Q 2509 2203 2413 2622 
L 2394 2622 
Q 2322 2319 2188 1919 
L 1534 6 
L 1150 6 
L 44 3250 
L 619 3250 
L 1156 1491 
Q 1206 1331 1363 753 
L 1381 753 
Q 1475 1125 1594 1491 
L 2169 3250 
L 2656 3250 
L 3256 1491 
Q 3347 1244 3469 753 
L 3488 753 
Q 3591 1184 3684 1491 
L 4216 3250 
L 4772 3250 
z
" transform="scale(0.015625)"/>
       </defs>
       <use xlink:href="#IPAexGothic-70"/>
       <use xlink:href="#IPAexGothic-6f" transform="translate(62.109375 0)"/>
       <use xlink:href="#IPAexGothic-77" transform="translate(122.509766 0)"/>
      </g>
     </g>
    </g>
    <g id="xtick_4">
     <g id="line2d_8">
      <path d="M 221.4 218.16 
L 221.4 384.48 
" clip-path="url(#p557ee22e42)" style="fill: none; stroke: #b0b0b0; stroke-width: 0.8; stroke-linecap: square"/>
     </g>
     <g id="text_4">
      <!-- dp -->
      <g transform="translate(215.174219 401.275313) scale(0.1 -0.1)">
       <defs>
        <path id="IPAexGothic-64" d="M 3391 63 
L 2891 63 
L 2891 619 
Q 2441 -31 1753 -31 
Q 1181 -31 788 372 
Q 313 844 313 1663 
Q 313 2466 772 2938 
Q 1169 3341 1753 3341 
Q 2384 3341 2847 2809 
L 2847 4794 
L 3391 4794 
L 3391 63 
z
M 2847 1303 
L 2847 2097 
Q 2847 2413 2456 2706 
Q 2181 2906 1853 2906 
Q 1484 2906 1228 2650 
Q 888 2309 888 1678 
Q 888 1109 1169 750 
Q 1441 409 1847 409 
Q 2322 409 2656 875 
Q 2847 1134 2847 1303 
z
" transform="scale(0.015625)"/>
       </defs>
       <use xlink:href="#IPAexGothic-64"/>
       <use xlink:href="#IPAexGothic-70" transform="translate(62.402344 0)"/>
      </g>
     </g>
    </g>
    <g id="xtick_5">
     <g id="line2d_9">
      <path d="M 221.4 218.16 
L 365.437345 301.32 
" clip-path="url(#p557ee22e42)" style="fill: none; stroke: #b0b0b0; stroke-width: 0.8; stroke-linecap: square"/>
     </g>
     <g id="text_5">
      <!-- x -->
      <g transform="translate(375.117951 311.115313) scale(0.1 -0.1)">
       <defs>
        <path id="IPAexGothic-78" d="M 3050 63 
L 2419 63 
L 1547 1338 
L 691 63 
L 56 63 
L 1247 1675 
L 106 3250 
L 747 3250 
L 1578 2016 
L 2413 3250 
L 3019 3250 
L 1875 1681 
L 3050 63 
z
" transform="scale(0.015625)"/>
       </defs>
       <use xlink:href="#IPAexGothic-78"/>
      </g>
     </g>
    </g>
    <g id="xtick_6">
     <g id="line2d_10">
      <path d="M 221.4 218.16 
L 365.437345 135 
" clip-path="url(#p557ee22e42)" style="fill: none; stroke: #b0b0b0; stroke-width: 0.8; stroke-linecap: square"/>
     </g>
     <g id="text_6">
      <!-- triangle -->
      <g transform="translate(359.889826 130.766406) scale(0.1 -0.1)">
       <defs>
        <path id="IPAexGothic-74" d="M 2125 241 
Q 1769 -6 1397 -6 
Q 653 -6 653 831 
L 653 2859 
L 219 2859 
L 219 3250 
L 653 3250 
L 653 3966 
L 1178 4228 
L 1178 3250 
L 2063 3250 
L 2063 2859 
L 1178 2859 
L 1178 906 
Q 1178 416 1513 416 
Q 1738 416 1941 588 
L 2125 241 
z
" transform="scale(0.015625)"/>
        <path id="IPAexGothic-61" d="M 3156 63 
L 2672 63 
Q 2559 303 2531 556 
L 2509 556 
Q 2147 -25 1428 -25 
Q 934 -25 622 288 
Q 347 563 347 959 
Q 347 1947 2050 1997 
L 2478 2009 
L 2478 2175 
Q 2478 2509 2288 2700 
Q 2088 2900 1775 2900 
Q 1238 2900 969 2378 
L 494 2597 
Q 938 3328 1788 3328 
Q 2375 3328 2691 3000 
Q 2984 2706 2984 2169 
L 2984 997 
Q 2984 400 3156 63 
z
M 2491 1625 
L 2141 1619 
Q 903 1591 903 953 
Q 903 728 1050 581 
Q 1231 403 1525 403 
Q 1934 403 2234 703 
Q 2491 969 2491 1344 
L 2491 1625 
z
" transform="scale(0.015625)"/>
        <path id="IPAexGothic-6e" d="M 3328 63 
L 2778 63 
L 2778 2041 
Q 2778 2853 2106 2853 
Q 1428 2853 1113 2041 
L 1113 63 
L 563 63 
L 563 3250 
L 1075 3250 
L 1075 2675 
Q 1525 3316 2222 3316 
Q 3328 3316 3328 2072 
L 3328 63 
z
" transform="scale(0.015625)"/>
        <path id="IPAexGothic-67" d="M 1331 1150 
Q 1006 1122 1006 900 
Q 1006 613 1763 575 
L 2131 556 
Q 3303 497 3303 -294 
Q 3303 -700 2925 -959 
Q 2519 -1253 1794 -1253 
Q 1138 -1253 738 -1028 
Q 353 -809 353 -428 
Q 353 84 1075 247 
L 1075 269 
Q 506 413 506 778 
Q 506 1116 994 1297 
Q 456 1575 456 2181 
Q 456 2650 769 2963 
Q 1128 3322 1738 3322 
Q 2125 3322 2422 3153 
Q 2650 3453 3259 3463 
L 3259 3013 
Q 2838 3003 2703 2938 
Q 3034 2613 3034 2169 
Q 3034 1728 2734 1425 
Q 2400 1094 1813 1094 
Q 1563 1094 1331 1150 
z
M 1734 2919 
Q 1409 2919 1197 2706 
Q 988 2497 988 2181 
Q 988 1872 1184 1684 
Q 1397 1472 1756 1472 
Q 2094 1472 2297 1678 
Q 2503 1881 2503 2203 
Q 2503 2497 2297 2700 
Q 2081 2919 1734 2919 
z
M 1753 159 
Q 903 159 903 -366 
Q 903 -875 1800 -875 
Q 2378 -875 2638 -606 
Q 2772 -481 2772 -313 
Q 2772 159 1753 159 
z
" transform="scale(0.015625)"/>
       </defs>
       <use xlink:href="#IPAexGothic-74"/>
       <use xlink:href="#IPAexGothic-72" transform="translate(34.619141 0)"/>
       <use xlink:href="#IPAexGothic-69" transform="translate(71.630859 0)"/>
       <use xlink:href="#IPAexGothic-61" transform="translate(98.632812 0)"/>
       <use xlink:href="#IPAexGothic-6e" transform="translate(153.613281 0)"/>
       <use xlink:href="#IPAexGothic-67" transform="translate(214.013672 0)"/>
       <use xlink:href="#IPAexGothic-6c" transform="translate(269.53125 0)"/>
       <use xlink:href="#IPAexGothic-65" transform="translate(296.533203 0)"/>
      </g>
     </g>
    </g>
   </g>
   <g id="matplotlib.axis_2">
    <g id="ytick_1">
     <g id="line2d_11">
      <path d="M 221.4 180.787519 
C 216.492291 180.787519 211.632303 181.75423 207.098171 183.632329 
C 202.564038 185.510428 198.443939 188.26339 194.973665 191.733665 
C 191.50339 195.203939 188.750428 199.324038 186.872329 203.858171 
C 184.99423 208.392303 184.027519 213.252291 184.027519 218.16 
C 184.027519 223.067709 184.99423 227.927697 186.872329 232.461829 
C 188.750428 236.995962 191.50339 241.116061 194.973665 244.586335 
C 198.443939 248.05661 202.564038 250.809572 207.098171 252.687671 
C 211.632303 254.56577 216.492291 255.532481 221.4 255.532481 
C 226.307709 255.532481 231.167697 254.56577 235.701829 252.687671 
C 240.235962 250.809572 244.356061 248.05661 247.826335 244.586335 
C 251.29661 241.116061 254.049572 236.995962 255.927671 232.461829 
C 257.80577 227.927697 258.772481 223.067709 258.772481 218.16 
C 258.772481 213.252291 257.80577 208.392303 255.927671 203.858171 
C 254.049572 199.324038 251.29661 195.203939 247.826335 191.733665 
C 244.356061 188.26339 240.235962 185.510428 235.701829 183.632329 
C 231.167697 181.75423 226.307709 180.787519 221.4 180.787519 
" clip-path="url(#p557ee22e42)" style="fill: none; stroke: #b0b0b0; stroke-width: 0.8; stroke-linecap: square"/>
     </g>
     <g id="text_7">
      <!-- 300 -->
      <g transform="translate(184.027519 216.26) scale(0.1 -0.1)">
       <defs>
        <path id="IPAexGothic-33" d="M 2381 2419 
Q 3506 2216 3506 1278 
Q 3506 716 3128 356 
Q 2709 -31 1944 -31 
Q 797 -31 288 881 
L 756 1131 
Q 1109 441 1938 441 
Q 2425 441 2694 691 
Q 2950 928 2950 1291 
Q 2950 1719 2566 1978 
Q 2216 2213 1644 2213 
L 1363 2213 
L 1363 2669 
L 1656 2669 
Q 2231 2669 2534 2888 
Q 2859 3119 2859 3509 
Q 2859 3934 2494 4138 
Q 2259 4278 1931 4278 
Q 1238 4278 903 3578 
L 434 3803 
Q 897 4725 1938 4725 
Q 2597 4725 3006 4394 
Q 3416 4069 3416 3534 
Q 3416 3028 3019 2706 
Q 2763 2500 2381 2444 
L 2381 2419 
z
" transform="scale(0.015625)"/>
        <path id="IPAexGothic-30" d="M 2038 4725 
Q 2881 4725 3334 3944 
Q 3694 3325 3694 2344 
Q 3694 1372 3334 741 
Q 2888 -31 2016 -31 
Q 1147 -31 700 741 
Q 341 1372 341 2350 
Q 341 3713 1000 4334 
Q 1419 4725 2038 4725 
z
M 2016 4266 
Q 1516 4266 1228 3759 
Q 934 3247 934 2344 
Q 934 1456 1222 947 
Q 1513 447 2016 447 
Q 2619 447 2909 1153 
Q 3100 1622 3100 2375 
Q 3100 3256 2806 3759 
Q 2509 4266 2016 4266 
z
" transform="scale(0.015625)"/>
       </defs>
       <use xlink:href="#IPAexGothic-33"/>
       <use xlink:href="#IPAexGothic-30" transform="translate(62.988281 0)"/>
       <use xlink:href="#IPAexGothic-30" transform="translate(125.976562 0)"/>
      </g>
     </g>
    </g>
    <g id="ytick_2">
     <g id="line2d_12">
      <path d="M 221.4 143.415037 
C 211.584581 143.415037 201.864605 145.348461 192.796341 149.104659 
C 183.728077 152.860857 175.487879 158.366781 168.54733 165.30733 
C 161.606781 172.247879 156.100857 180.488077 152.344659 189.556341 
C 148.588461 198.624605 146.655037 208.344581 146.655037 218.16 
C 146.655037 227.975419 148.588461 237.695395 152.344659 246.763659 
C 156.100857 255.831923 161.606781 264.072121 168.54733 271.01267 
C 175.487879 277.953219 183.728077 283.459143 192.796341 287.215341 
C 201.864605 290.971539 211.584581 292.904963 221.4 292.904963 
C 231.215419 292.904963 240.935395 290.971539 250.003659 287.215341 
C 259.071923 283.459143 267.312121 277.953219 274.25267 271.01267 
C 281.193219 264.072121 286.699143 255.831923 290.455341 246.763659 
C 294.211539 237.695395 296.144963 227.975419 296.144963 218.16 
C 296.144963 208.344581 294.211539 198.624605 290.455341 189.556341 
C 286.699143 180.488077 281.193219 172.247879 274.25267 165.30733 
C 267.312121 158.366781 259.071923 152.860857 250.003659 149.104659 
C 240.935395 145.348461 231.215419 143.415037 221.4 143.415037 
" clip-path="url(#p557ee22e42)" style="fill: none; stroke: #b0b0b0; stroke-width: 0.8; stroke-linecap: square"/>
     </g>
     <g id="text_8">
      <!-- 600 -->
      <g transform="translate(146.655037 216.26) scale(0.1 -0.1)">
       <defs>
        <path id="IPAexGothic-36" d="M 1056 2328 
Q 1509 2981 2234 2981 
Q 2906 2981 3316 2513 
Q 3675 2106 3675 1522 
Q 3675 884 3272 434 
Q 2853 -31 2178 -31 
Q 1375 -31 922 581 
Q 481 1178 481 2228 
Q 481 3425 1013 4109 
Q 1494 4725 2272 4725 
Q 3191 4725 3609 4025 
L 3150 3775 
Q 2894 4266 2300 4266 
Q 1119 4266 1031 2328 
L 1056 2328 
z
M 2141 2547 
Q 1684 2547 1384 2206 
Q 1116 1900 1116 1541 
Q 1116 1156 1353 844 
Q 1672 428 2159 428 
Q 2669 428 2941 844 
Q 3125 1128 3125 1503 
Q 3125 1944 2881 2228 
Q 2600 2547 2141 2547 
z
" transform="scale(0.015625)"/>
       </defs>
       <use xlink:href="#IPAexGothic-36"/>
       <use xlink:href="#IPAexGothic-30" transform="translate(62.988281 0)"/>
       <use xlink:href="#IPAexGothic-30" transform="translate(125.976562 0)"/>
      </g>
     </g>
    </g>
    <g id="ytick_3">
     <g id="line2d_13">
      <path d="M 221.4 106.042556 
C 206.676872 106.042556 192.096908 108.942691 178.494512 114.576988 
C 164.892115 120.211285 152.531818 128.470171 142.120995 138.880995 
C 131.710171 149.291818 123.451285 161.652115 117.816988 175.254512 
C 112.182691 188.856908 109.282556 203.436872 109.282556 218.16 
C 109.282556 232.883128 112.182691 247.463092 117.816988 261.065488 
C 123.451285 274.667885 131.710171 287.028182 142.120995 297.439005 
C 152.531818 307.849829 164.892115 316.108715 178.494512 321.743012 
C 192.096908 327.377309 206.676872 330.277444 221.4 330.277444 
C 236.123128 330.277444 250.703092 327.377309 264.305488 321.743012 
C 277.907885 316.108715 290.268182 307.849829 300.679005 297.439005 
C 311.089829 287.028182 319.348715 274.667885 324.983012 261.065488 
C 330.617309 247.463092 333.517444 232.883128 333.517444 218.16 
C 333.517444 203.436872 330.617309 188.856908 324.983012 175.254512 
C 319.348715 161.652115 311.089829 149.291818 300.679005 138.880995 
C 290.268182 128.470171 277.907885 120.211285 264.305488 114.576988 
C 250.703092 108.942691 236.123128 106.042556 221.4 106.042556 
" clip-path="url(#p557ee22e42)" style="fill: none; stroke: #b0b0b0; stroke-width: 0.8; stroke-linecap: square"/>
     </g>
     <g id="text_9">
      <!-- 900 -->
      <g transform="translate(109.282556 216.26) scale(0.1 -0.1)">
       <defs>
        <path id="IPAexGothic-39" d="M 2984 2356 
Q 2544 1716 1813 1716 
Q 1253 1716 847 2056 
Q 366 2459 366 3163 
Q 366 3813 769 4266 
Q 1181 4725 1869 4725 
Q 2800 4725 3241 3950 
Q 3559 3378 3559 2472 
Q 3559 1250 3041 588 
Q 2553 -31 1769 -31 
Q 859 -31 391 703 
L 853 953 
Q 1156 428 1753 428 
Q 2922 428 3009 2356 
L 2984 2356 
z
M 1888 4278 
Q 1450 4278 1172 3950 
Q 922 3653 922 3200 
Q 922 2741 1159 2478 
Q 1434 2163 1906 2163 
Q 2431 2163 2728 2572 
Q 2925 2847 2925 3169 
Q 2925 3553 2694 3863 
Q 2375 4278 1888 4278 
z
" transform="scale(0.015625)"/>
       </defs>
       <use xlink:href="#IPAexGothic-39"/>
       <use xlink:href="#IPAexGothic-30" transform="translate(62.988281 0)"/>
       <use xlink:href="#IPAexGothic-30" transform="translate(125.976562 0)"/>
      </g>
     </g>
    </g>
    <g id="ytick_4">
     <g id="line2d_14">
      <path d="M 221.4 68.670074 
C 201.769163 68.670074 182.329211 72.536921 164.192682 80.049317 
C 146.056153 87.561713 129.575758 98.573562 115.69466 112.45466 
C 101.813562 126.335758 90.801713 142.816153 83.289317 160.952682 
C 75.776921 179.089211 71.910074 198.529163 71.910074 218.16 
C 71.910074 237.790837 75.776921 257.230789 83.289317 275.367318 
C 90.801713 293.503847 101.813562 309.984242 115.69466 323.86534 
C 129.575758 337.746438 146.056153 348.758287 164.192682 356.270683 
C 182.329211 363.783079 201.769163 367.649926 221.4 367.649926 
C 241.030837 367.649926 260.470789 363.783079 278.607318 356.270683 
C 296.743847 348.758287 313.224242 337.746438 327.10534 323.86534 
C 340.986438 309.984242 351.998287 293.503847 359.510683 275.367318 
C 367.023079 257.230789 370.889926 237.790837 370.889926 218.16 
C 370.889926 198.529163 367.023079 179.089211 359.510683 160.952682 
C 351.998287 142.816153 340.986438 126.335758 327.10534 112.45466 
C 313.224242 98.573562 296.743847 87.561713 278.607318 80.049317 
C 260.470789 72.536921 241.030837 68.670074 221.4 68.670074 
" clip-path="url(#p557ee22e42)" style="fill: none; stroke: #b0b0b0; stroke-width: 0.8; stroke-linecap: square"/>
     </g>
     <g id="text_10">
      <!-- 1200 -->
      <g transform="translate(71.910074 216.26) scale(0.1 -0.1)">
       <defs>
        <path id="IPAexGothic-31" d="M 2463 63 
L 1900 63 
L 1900 4103 
Q 1372 3922 788 3797 
L 684 4231 
Q 1519 4441 2106 4731 
L 2463 4731 
L 2463 63 
z
" transform="scale(0.015625)"/>
        <path id="IPAexGothic-32" d="M 3659 63 
L 447 63 
L 447 594 
Q 825 1475 1894 2203 
L 2072 2322 
Q 2619 2697 2791 2906 
Q 2988 3153 2988 3444 
Q 2988 3772 2756 4003 
Q 2500 4259 2084 4259 
Q 1250 4259 991 3328 
L 497 3506 
Q 853 4725 2116 4725 
Q 2806 4725 3216 4316 
Q 3575 3947 3575 3425 
Q 3575 3038 3344 2722 
Q 3131 2416 2366 1938 
L 2231 1856 
Q 1256 1253 978 569 
L 3659 569 
L 3659 63 
z
" transform="scale(0.015625)"/>
       </defs>
       <use xlink:href="#IPAexGothic-31"/>
       <use xlink:href="#IPAexGothic-32" transform="translate(62.988281 0)"/>
       <use xlink:href="#IPAexGothic-30" transform="translate(125.976562 0)"/>
       <use xlink:href="#IPAexGothic-30" transform="translate(188.964844 0)"/>
      </g>
     </g>
    </g>
   </g>
   <g id="text_11">
    <!-- スタッツ -->
    <g transform="translate(197.4 27.144687) scale(0.12 -0.12)">
     <defs>
      <path id="IPAexGothic-30b9" d="M 4359 4481 
L 4716 4147 
Q 4328 3072 3647 2150 
Q 4659 1434 5659 453 
L 5234 19 
Q 4256 1088 3353 1778 
Q 2372 597 1044 -31 
L 653 403 
Q 3128 1453 4097 4000 
L 1241 3963 
L 1228 4453 
L 4359 4481 
z
" transform="scale(0.015625)"/>
      <path id="IPAexGothic-30bf" d="M 4978 4263 
L 5313 3988 
Q 4797 2431 4056 1459 
Q 3191 325 1822 -300 
L 1466 109 
Q 2131 381 2613 738 
Q 3053 1066 3531 1600 
Q 2919 2225 2144 2791 
Q 1603 2203 1172 1875 
L 825 2234 
Q 2316 3328 2866 5031 
L 3359 4897 
Q 3325 4775 3109 4263 
L 4978 4263 
z
M 2894 3816 
Q 2709 3522 2438 3169 
Q 3194 2616 3841 2003 
Q 4366 2806 4747 3816 
L 2894 3816 
z
" transform="scale(0.015625)"/>
      <path id="IPAexGothic-30c3" d="M 1775 1984 
Q 1553 2666 1275 3175 
L 1716 3391 
Q 2034 2866 2247 2209 
L 1775 1984 
z
M 3003 2297 
Q 2813 2978 2522 3469 
L 2978 3681 
Q 3291 3166 3484 2522 
L 3003 2297 
z
M 1928 372 
Q 3094 744 3731 1569 
Q 4275 2263 4469 3525 
L 4975 3406 
Q 4734 1975 4016 1119 
Q 3406 391 2266 -44 
L 1928 372 
z
" transform="scale(0.015625)"/>
      <path id="IPAexGothic-30c4" d="M 1453 2591 
Q 1197 3459 838 4116 
L 1356 4331 
Q 1734 3647 2003 2841 
L 1453 2591 
z
M 2956 2963 
Q 2741 3763 2353 4494 
L 2866 4706 
Q 3234 4031 3500 3200 
L 2956 2963 
z
M 1894 294 
Q 3550 928 4244 2272 
Q 4678 3109 4900 4538 
L 5453 4366 
Q 5166 2584 4434 1519 
Q 3722 463 2266 -147 
L 1894 294 
z
" transform="scale(0.015625)"/>
     </defs>
     <use xlink:href="#IPAexGothic-30b9"/>
     <use xlink:href="#IPAexGothic-30bf" transform="translate(100 0)"/>
     <use xlink:href="#IPAexGothic-30c3" transform="translate(200 0)"/>
     <use xlink:href="#IPAexGothic-30c4" transform="translate(300 0)"/>
    </g>
   </g>
   <g id="legend_1">
    <g id="patch_8">
     <path d="M 177.750781 379.48 
L 265.049219 379.48 
Q 267.049219 379.48 267.049219 377.48 
L 267.049219 319.044062 
Q 267.049219 317.044062 265.049219 317.044062 
L 177.750781 317.044062 
Q 175.750781 317.044062 175.750781 319.044062 
L 175.750781 377.48 
Q 175.750781 379.48 177.750781 379.48 
z
" style="fill: #fffff0; opacity: 0.8; stroke: #cccccc; stroke-linejoin: miter"/>
    </g>
    <g id="line2d_15">
     <path d="M 179.750781 325.634688 
L 189.750781 325.634688 
L 199.750781 325.634688 
" style="fill: none; stroke: #6495ed; stroke-width: 1.5; stroke-linecap: square"/>
    </g>
    <g id="text_12">
     <!-- 氷水 (mean) -->
     <g transform="translate(207.750781 329.134688) scale(0.1 -0.1)">
      <defs>
       <path id="IPAexGothic-6c37" d="M 3469 4238 
Q 3594 3469 3891 2925 
Q 4641 3541 5241 4325 
L 5684 4000 
Q 5009 3231 4116 2547 
Q 4900 1409 6106 666 
L 5734 219 
Q 4034 1397 3469 2963 
L 3469 19 
Q 3469 -447 2872 -447 
Q 2466 -447 2072 -403 
L 1975 97 
Q 2466 22 2816 22 
Q 3000 22 3000 206 
L 3000 5222 
L 3469 5222 
L 3469 4238 
z
M 2081 3681 
Q 1447 4219 884 4525 
L 1203 4872 
Q 1888 4497 2406 4044 
L 2081 3681 
z
M 475 3384 
L 2413 3384 
L 2631 3166 
Q 2356 2113 1881 1369 
Q 1444 688 659 72 
L 269 428 
Q 1591 1338 2075 2969 
L 475 2969 
L 475 3384 
z
" transform="scale(0.015625)"/>
       <path id="IPAexGothic-6c34" d="M 3469 4219 
Q 3594 3556 3853 3028 
Q 4581 3613 5184 4359 
L 5594 4044 
Q 4944 3297 4056 2650 
Q 4800 1447 6059 728 
L 5728 275 
Q 4016 1394 3469 2994 
L 3469 63 
Q 3469 -391 2872 -391 
Q 2484 -391 2059 -347 
L 1969 153 
Q 2459 78 2816 78 
Q 3000 78 3000 263 
L 3000 5228 
L 3469 5228 
L 3469 4219 
z
M 563 3794 
L 2438 3794 
L 2647 3569 
Q 2475 2638 2181 2003 
Q 1706 984 697 109 
L 319 475 
Q 1809 1578 2156 3366 
L 563 3366 
L 563 3794 
z
" transform="scale(0.015625)"/>
       <path id="IPAexGothic-20" transform="scale(0.015625)"/>
       <path id="IPAexGothic-28" d="M 1928 -1016 
L 1653 -1166 
Q 488 69 488 1875 
Q 488 3678 1653 4909 
L 1928 4763 
Q 1006 3522 1006 1881 
Q 1006 203 1928 -1016 
z
" transform="scale(0.015625)"/>
       <path id="IPAexGothic-6d" d="M 5022 63 
L 4472 63 
L 4472 2059 
Q 4472 2869 3847 2869 
Q 3550 2869 3303 2594 
Q 3128 2397 3059 2103 
L 3059 63 
L 2509 63 
L 2509 2066 
Q 2509 2869 1919 2869 
Q 1606 2869 1369 2594 
Q 1113 2306 1113 2041 
L 1113 63 
L 563 63 
L 563 3250 
L 1075 3250 
L 1075 2700 
Q 1391 3316 2028 3316 
Q 2725 3316 2956 2647 
Q 3303 3316 3953 3316 
Q 4478 3316 4772 2944 
Q 5022 2638 5022 2072 
L 5022 63 
z
" transform="scale(0.015625)"/>
       <path id="IPAexGothic-29" d="M 466 4909 
Q 1638 3672 1638 1875 
Q 1638 75 466 -1166 
L 191 -1016 
Q 1119 216 1119 1881 
Q 1119 3509 191 4763 
L 466 4909 
z
" transform="scale(0.015625)"/>
      </defs>
      <use xlink:href="#IPAexGothic-6c37"/>
      <use xlink:href="#IPAexGothic-6c34" transform="translate(100 0)"/>
      <use xlink:href="#IPAexGothic-20" transform="translate(200 0)"/>
      <use xlink:href="#IPAexGothic-28" transform="translate(227.001953 0)"/>
      <use xlink:href="#IPAexGothic-6d" transform="translate(260.302734 0)"/>
      <use xlink:href="#IPAexGothic-65" transform="translate(347.412109 0)"/>
      <use xlink:href="#IPAexGothic-61" transform="translate(404.296875 0)"/>
      <use xlink:href="#IPAexGothic-6e" transform="translate(459.277344 0)"/>
      <use xlink:href="#IPAexGothic-29" transform="translate(519.677734 0)"/>
     </g>
    </g>
    <g id="line2d_16">
     <path d="M 179.750781 340.728438 
L 189.750781 340.728438 
L 199.750781 340.728438 
" style="fill: none; stroke: #90ee90; stroke-width: 1.5; stroke-linecap: square"/>
    </g>
    <g id="text_13">
     <!-- 自然 (mean) -->
     <g transform="translate(207.750781 344.228438) scale(0.1 -0.1)">
      <defs>
       <path id="IPAexGothic-81ea" d="M 2591 4353 
Q 2719 4766 2816 5294 
L 3359 5191 
Q 3250 4809 3072 4353 
L 5291 4353 
L 5291 -450 
L 4822 -450 
L 4822 -72 
L 1569 -72 
L 1569 -450 
L 1100 -450 
L 1100 4353 
L 2591 4353 
z
M 1569 3956 
L 1569 3028 
L 4822 3028 
L 4822 3956 
L 1569 3956 
z
M 1569 2644 
L 1569 1716 
L 4822 1716 
L 4822 2644 
L 1569 2644 
z
M 1569 1331 
L 1569 325 
L 4822 325 
L 4822 1331 
L 1569 1331 
z
" transform="scale(0.015625)"/>
       <path id="IPAexGothic-7136" d="M 1047 3103 
L 1013 3066 
Q 919 2944 644 2669 
L 363 3006 
Q 1294 3881 1609 5288 
L 2056 5184 
Q 2028 5081 1988 4944 
Q 1941 4794 1934 4775 
L 2953 4775 
L 3222 4569 
Q 3159 4231 3056 3903 
L 3888 3903 
L 3888 5209 
L 4328 5209 
L 4328 3903 
L 5850 3903 
L 5850 3519 
L 4431 3519 
Q 4866 2256 5997 1613 
L 5647 1216 
Q 5084 1631 4597 2328 
Q 4328 2713 4175 3172 
Q 3934 1794 2734 1113 
L 2422 1459 
Q 3681 2113 3863 3519 
L 2916 3519 
Q 2288 1900 791 1063 
L 469 1413 
Q 1209 1769 1738 2372 
Q 1431 2756 1047 3103 
z
M 1263 3391 
Q 1597 3144 2006 2713 
Q 2159 2938 2294 3178 
Q 1919 3494 1488 3750 
Q 1403 3591 1263 3391 
z
M 2478 3569 
Q 2647 3975 2722 4391 
L 1800 4391 
Q 1731 4222 1659 4069 
Q 2131 3828 2478 3569 
z
M 5209 4128 
Q 4963 4559 4647 4884 
L 4994 5113 
Q 5303 4825 5581 4378 
L 5209 4128 
z
M 500 -172 
Q 950 316 1250 978 
L 1659 800 
Q 1341 50 903 -494 
L 500 -172 
z
M 2453 -434 
Q 2381 294 2228 819 
L 2656 922 
Q 2859 369 2966 -319 
L 2453 -434 
z
M 3853 -341 
Q 3672 363 3419 856 
L 3847 991 
Q 4109 569 4334 -178 
L 3853 -341 
z
M 5569 -366 
Q 5191 328 4713 878 
L 5097 1069 
Q 5634 538 6009 -91 
L 5569 -366 
z
" transform="scale(0.015625)"/>
      </defs>
      <use xlink:href="#IPAexGothic-81ea"/>
      <use xlink:href="#IPAexGothic-7136" transform="translate(100 0)"/>
      <use xlink:href="#IPAexGothic-20" transform="translate(200 0)"/>
      <use xlink:href="#IPAexGothic-28" transform="translate(227.001953 0)"/>
      <use xlink:href="#IPAexGothic-6d" transform="translate(260.302734 0)"/>
      <use xlink:href="#IPAexGothic-65" transform="translate(347.412109 0)"/>
      <use xlink:href="#IPAexGothic-61" transform="translate(404.296875 0)"/>
      <use xlink:href="#IPAexGothic-6e" transform="translate(459.277344 0)"/>
      <use xlink:href="#IPAexGothic-29" transform="translate(519.677734 0)"/>
     </g>
    </g>
    <g id="line2d_17">
     <path d="M 179.750781 355.689375 
L 189.750781 355.689375 
L 199.750781 355.689375 
" style="fill: none; stroke: #ff4500; stroke-width: 1.5; stroke-linecap: square"/>
    </g>
    <g id="text_14">
     <!-- 火炎 (mean) -->
     <g transform="translate(207.750781 359.189375) scale(0.1 -0.1)">
      <defs>
       <path id="IPAexGothic-706b" d="M 3425 5147 
L 3425 4044 
Q 3425 1303 5978 197 
L 5600 -244 
Q 3691 725 3219 2584 
Q 2903 363 819 -378 
L 475 44 
Q 1847 438 2394 1447 
Q 2925 2422 2925 3969 
L 2925 5147 
L 3425 5147 
z
M 794 2144 
Q 1325 2953 1525 3938 
L 2025 3834 
Q 1728 2644 1244 1856 
L 794 2144 
z
M 4169 2344 
Q 4778 3203 5178 4159 
L 5691 3938 
Q 5191 2906 4578 2119 
L 4169 2344 
z
" transform="scale(0.015625)"/>
       <path id="IPAexGothic-708e" d="M 3419 2772 
L 3419 2413 
Q 3419 716 5984 109 
L 5663 -353 
Q 3691 234 3231 1375 
Q 3022 581 2334 128 
Q 1753 -253 716 -488 
L 416 -56 
Q 1791 144 2394 775 
Q 2931 1341 2931 2406 
L 2931 2772 
L 3419 2772 
z
M 3322 3916 
Q 4659 3288 5906 2491 
L 5541 2119 
Q 4375 2897 3194 3541 
Q 2722 2463 903 1972 
L 606 2394 
Q 1741 2616 2316 3122 
Q 2931 3672 2931 4716 
L 2931 5209 
L 3419 5209 
L 3419 4819 
Q 3419 4291 3322 3916 
z
M 1019 3544 
Q 1547 4075 1766 4756 
L 2228 4616 
Q 1953 3819 1375 3231 
L 1019 3544 
z
M 4013 3878 
Q 4547 4300 4991 4863 
L 5447 4622 
Q 5072 4181 4366 3609 
L 4013 3878 
z
M 1113 1044 
Q 1534 1484 1759 2138 
L 2206 2009 
Q 1975 1297 1509 750 
L 1113 1044 
z
M 4031 1294 
Q 4484 1744 4825 2297 
L 5272 2059 
Q 4822 1456 4403 1056 
L 4031 1294 
z
" transform="scale(0.015625)"/>
      </defs>
      <use xlink:href="#IPAexGothic-706b"/>
      <use xlink:href="#IPAexGothic-708e" transform="translate(100 0)"/>
      <use xlink:href="#IPAexGothic-20" transform="translate(200 0)"/>
      <use xlink:href="#IPAexGothic-28" transform="translate(227.001953 0)"/>
      <use xlink:href="#IPAexGothic-6d" transform="translate(260.302734 0)"/>
      <use xlink:href="#IPAexGothic-65" transform="translate(347.412109 0)"/>
      <use xlink:href="#IPAexGothic-61" transform="translate(404.296875 0)"/>
      <use xlink:href="#IPAexGothic-6e" transform="translate(459.277344 0)"/>
      <use xlink:href="#IPAexGothic-29" transform="translate(519.677734 0)"/>
     </g>
    </g>
    <g id="line2d_18">
     <path d="M 179.750781 370.08 
L 189.750781 370.08 
L 199.750781 370.08 
" style="fill: none; stroke: #a52a2a; stroke-width: 1.5; stroke-linecap: square"/>
    </g>
    <g id="text_15">
     <!-- シーラモン -->
     <g transform="translate(207.750781 373.58) scale(0.1 -0.1)">
      <defs>
       <path id="IPAexGothic-30b7" d="M 2828 3531 
Q 2219 4056 1613 4359 
L 1913 4781 
Q 2503 4491 3169 3981 
L 2828 3531 
z
M 1163 500 
Q 3944 1094 5338 3525 
L 5688 3128 
Q 4297 700 1484 0 
L 1163 500 
z
M 2072 2278 
Q 1466 2800 831 3109 
L 1131 3541 
Q 1806 3213 2406 2725 
L 2072 2278 
z
" transform="scale(0.015625)"/>
       <path id="IPAexGothic-30fc" d="M 588 2688 
L 5809 2688 
L 5809 2175 
L 588 2175 
L 588 2688 
z
" transform="scale(0.015625)"/>
       <path id="IPAexGothic-30e9" d="M 1447 4709 
L 4922 4709 
L 4922 4234 
L 1447 4234 
L 1447 4709 
z
M 897 3303 
L 5172 3303 
L 5478 3013 
Q 5069 1669 4219 875 
Q 3475 181 2306 -181 
L 1972 294 
Q 4150 784 4834 2828 
L 897 2828 
L 897 3303 
z
" transform="scale(0.015625)"/>
       <path id="IPAexGothic-30e2" d="M 1216 4409 
L 5147 4409 
L 5147 3950 
L 3053 3950 
L 3053 2797 
L 5644 2797 
L 5644 2328 
L 3053 2328 
L 3053 972 
Q 3053 669 3272 600 
Q 3453 544 4013 544 
Q 4556 544 5269 600 
L 5269 97 
Q 4684 50 4147 50 
Q 3025 50 2753 250 
Q 2541 403 2541 825 
L 2541 2328 
L 744 2328 
L 744 2797 
L 2541 2797 
L 2541 3950 
L 1216 3950 
L 1216 4409 
z
" transform="scale(0.015625)"/>
       <path id="IPAexGothic-30f3" d="M 2444 3084 
Q 1816 3656 1056 4084 
L 1381 4519 
Q 2063 4191 2816 3559 
L 2444 3084 
z
M 1100 609 
Q 3984 1106 5216 3828 
L 5619 3469 
Q 4413 794 1434 103 
L 1100 609 
z
" transform="scale(0.015625)"/>
      </defs>
      <use xlink:href="#IPAexGothic-30b7"/>
      <use xlink:href="#IPAexGothic-30fc" transform="translate(100 0)"/>
      <use xlink:href="#IPAexGothic-30e9" transform="translate(200 0)"/>
      <use xlink:href="#IPAexGothic-30e2" transform="translate(300 0)"/>
      <use xlink:href="#IPAexGothic-30f3" transform="translate(400 0)"/>
     </g>
    </g>
   </g>
  </g>
 </g>
 <defs>
  <clipPath id="p557ee22e42">
   <path d="M 387.72 218.16 
C 387.72 196.319058 383.417811 174.690491 375.059644 154.512092 
C 366.701477 134.333692 354.449878 115.997879 339.006 100.554 
C 323.562121 85.110122 305.226308 72.858523 285.047908 64.500356 
C 264.869509 56.142189 243.240942 51.84 221.4 51.84 
C 199.559058 51.84 177.930491 56.142189 157.752092 64.500356 
C 137.573692 72.858523 119.237879 85.110122 103.794 100.554 
C 88.350122 115.997879 76.098523 134.333692 67.740356 154.512092 
C 59.382189 174.690491 55.08 196.319058 55.08 218.16 
C 55.08 240.000942 59.382189 261.629509 67.740356 281.807908 
C 76.098523 301.986308 88.350122 320.322121 103.794 335.766 
C 119.237879 351.209878 137.573692 363.461477 157.752092 371.819644 
C 177.930491 380.177811 199.559058 384.48 221.4 384.48 
C 243.240942 384.48 264.869509 380.177811 285.047908 371.819644 
C 305.226308 363.461477 323.562121 351.209878 339.006 335.766 
C 354.449878 320.322121 366.701477 301.986308 375.059644 281.807908 
C 383.417811 261.629509 387.72 240.000942 387.72 218.16 
M 221.4 218.16 
C 221.4 218.16 221.4 218.16 221.4 218.16 
C 221.4 218.16 221.4 218.16 221.4 218.16 
C 221.4 218.16 221.4 218.16 221.4 218.16 
C 221.4 218.16 221.4 218.16 221.4 218.16 
C 221.4 218.16 221.4 218.16 221.4 218.16 
C 221.4 218.16 221.4 218.16 221.4 218.16 
C 221.4 218.16 221.4 218.16 221.4 218.16 
C 221.4 218.16 221.4 218.16 221.4 218.16 
C 221.4 218.16 221.4 218.16 221.4 218.16 
C 221.4 218.16 221.4 218.16 221.4 218.16 
C 221.4 218.16 221.4 218.16 221.4 218.16 
C 221.4 218.16 221.4 218.16 221.4 218.16 
C 221.4 218.16 221.4 218.16 221.4 218.16 
C 221.4 218.16 221.4 218.16 221.4 218.16 
C 221.4 218.16 221.4 218.16 221.4 218.16 
C 221.4 218.16 221.4 218.16 221.4 218.16 
z
"/>
  </clipPath>
 </defs>
</svg>
