<?xml version="1.0" encoding="utf-8" standalone="no"?>
<!DOCTYPE svg PUBLIC "-//W3C//DTD SVG 1.1//EN"
  "http://www.w3.org/Graphics/SVG/1.1/DTD/svg11.dtd">
<svg xmlns:xlink="http://www.w3.org/1999/xlink" width="432pt" height="432pt" viewBox="0 0 432 432" xmlns="http://www.w3.org/2000/svg" version="1.1">
 <metadata>
  <rdf:RDF xmlns:dc="http://purl.org/dc/elements/1.1/" xmlns:cc="http://creativecommons.org/ns#" xmlns:rdf="http://www.w3.org/1999/02/22-rdf-syntax-ns#">
   <cc:Work>
    <dc:type rdf:resource="http://purl.org/dc/dcmitype/StillImage"/>
    <dc:date>2025-07-23T17:58:32.876517</dc:date>
    <dc:format>image/svg+xml</dc:format>
    <dc:creator>
     <cc:Agent>
      <dc:title>Matplotlib v3.10.3, https://matplotlib.org/</dc:title>
     </cc:Agent>
    </dc:creator>
   </cc:Work>
  </rdf:RDF>
 </metadata>
 <defs>
  <style type="text/css">*{stroke-linejoin: round; stroke-linecap: butt}</style>
 </defs>
 <g id="figure_1">
  <g id="patch_1">
   <path d="M 0 432 
L 432 432 
L 432 0 
L 0 0 
L 0 432 
z
" style="fill: none"/>
  </g>
  <g id="axes_1">
   <g id="patch_2">
    <path d="M 387.72 218.16 
C 387.72 196.319058 383.417811 174.690491 375.059644 154.512092 
C 366.701477 134.333692 354.449878 115.997879 339.006 100.554 
C 323.562121 85.110122 305.226308 72.858523 285.047908 64.500356 
C 264.869509 56.142189 243.240942 51.84 221.4 51.84 
C 199.559058 51.84 177.930491 56.142189 157.752092 64.500356 
C 137.573692 72.858523 119.237879 85.110122 103.794 100.554 
C 88.350122 115.997879 76.098523 134.333692 67.740356 154.512092 
C 59.382189 174.690491 55.08 196.319058 55.08 218.16 
C 55.08 240.000942 59.382189 261.629509 67.740356 281.807908 
C 76.098523 301.986308 88.350122 320.322121 103.794 335.766 
C 119.237879 351.209878 137.573692 363.461477 157.752092 371.819644 
C 177.930491 380.177811 199.559058 384.48 221.4 384.48 
C 243.240942 384.48 264.869509 380.177811 285.047908 371.819644 
C 305.226308 363.461477 323.562121 351.209878 339.006 335.766 
C 354.449878 320.322121 366.701477 301.986308 375.059644 281.807908 
C 383.417811 261.629509 387.72 240.000942 387.72 218.16 
M 221.4 218.16 
C 221.4 218.16 221.4 218.16 221.4 218.16 
C 221.4 218.16 221.4 218.16 221.4 218.16 
C 221.4 218.16 221.4 218.16 221.4 218.16 
C 221.4 218.16 221.4 218.16 221.4 218.16 
C 221.4 218.16 221.4 218.16 221.4 218.16 
C 221.4 218.16 221.4 218.16 221.4 218.16 
C 221.4 218.16 221.4 218.16 221.4 218.16 
C 221.4 218.16 221.4 218.16 221.4 218.16 
C 221.4 218.16 221.4 218.16 221.4 218.16 
C 221.4 218.16 221.4 218.16 221.4 218.16 
C 221.4 218.16 221.4 218.16 221.4 218.16 
C 221.4 218.16 221.4 218.16 221.4 218.16 
C 221.4 218.16 221.4 218.16 221.4 218.16 
C 221.4 218.16 221.4 218.16 221.4 218.16 
C 221.4 218.16 221.4 218.16 221.4 218.16 
C 221.4 218.16 221.4 218.16 221.4 218.16 
L 221.4 218.16 
z
" style="fill: none"/>
   </g>
   <g id="patch_3">
    <path d="M 221.4 59.76 
L 172.015767 189.648 
L 220.402339 218.736 
L 221.4 222.192 
L 251.329838 235.44 
L 257.315806 197.424 
z
" clip-path="url(#p4c3645fb79)" style="opacity: 0.4; stroke: #000000; stroke-linejoin: miter"/>
   </g>
   <g id="patch_4">
    <path d="M 221.4 85.104 
L 175.507582 191.664 
L 221.4 218.16 
L 221.4 221.616 
L 241.353225 229.68 
L 247.838024 202.896 
z
" clip-path="url(#p4c3645fb79)" style="fill: #a52a2a; opacity: 0.4; stroke: #a52a2a; stroke-linejoin: miter"/>
   </g>
   <g id="line2d_1">
    <path d="M 221.4 59.76 
L 172.015767 189.648 
L 220.402339 218.736 
L 221.4 222.192 
L 251.329838 235.44 
L 257.315806 197.424 
L 221.4 59.76 
" clip-path="url(#p4c3645fb79)" style="fill: none; stroke: #000000; stroke-width: 1.5; stroke-linecap: square"/>
   </g>
   <g id="line2d_2">
    <path d="M 221.4 85.104 
L 175.507582 191.664 
L 221.4 218.16 
L 221.4 221.616 
L 241.353225 229.68 
L 247.838024 202.896 
L 221.4 85.104 
" clip-path="url(#p4c3645fb79)" style="fill: none; stroke: #a52a2a; stroke-width: 1.5; stroke-linecap: square"/>
   </g>
   <g id="patch_5">
    <path d="M 221.4 51.84 
C 199.559058 51.84 177.930491 56.142189 157.752092 64.500356 
C 137.573692 72.858523 119.237879 85.110122 103.794 100.554 
C 88.350122 115.997879 76.098523 134.333692 67.740356 154.512092 
C 59.382189 174.690491 55.08 196.319058 55.08 218.16 
C 55.08 240.000942 59.382189 261.629509 67.740356 281.807908 
C 76.098523 301.986308 88.350122 320.322121 103.794 335.766 
C 119.237879 351.209878 137.573692 363.461477 157.752092 371.819644 
C 177.930491 380.177811 199.559058 384.48 221.4 384.48 
C 243.240942 384.48 264.869509 380.177811 285.047908 371.819644 
C 305.226308 363.461477 323.562121 351.209878 339.006 335.766 
C 354.449878 320.322121 366.701477 301.986308 375.059644 281.807908 
C 383.417811 261.629509 387.72 240.000942 387.72 218.16 
C 387.72 196.319058 383.417811 174.690491 375.059644 154.512092 
C 366.701477 134.333692 354.449878 115.997879 339.006 100.554 
C 323.562121 85.110122 305.226308 72.858523 285.047908 64.500356 
C 264.869509 56.142189 243.240942 51.84 221.4 51.84 
" style="fill: none; stroke: #000000; stroke-width: 0.8; stroke-linejoin: miter; stroke-linecap: square"/>
   </g>
   <g id="matplotlib.axis_1">
    <g id="xtick_1">
     <g id="line2d_3">
      <path d="M 221.4 218.16 
L 221.4 51.84 
" clip-path="url(#p4c3645fb79)" style="fill: none; stroke: #b0b0b0; stroke-width: 0.8; stroke-linecap: square"/>
     </g>
     <g id="text_1">
      <!-- hp -->
      <g transform="translate(215.260156 40.635312) scale(0.1 -0.1)">
       <defs>
        <path id="IPAexGothic-68" d="M 3347 63 
L 2797 63 
L 2797 2041 
Q 2797 2853 2131 2853 
Q 1447 2853 1131 2041 
L 1131 63 
L 581 63 
L 581 4794 
L 1131 4794 
L 1131 2706 
Q 1566 3316 2247 3316 
Q 3347 3316 3347 2072 
L 3347 63 
z
" transform="scale(0.015625)"/>
        <path id="IPAexGothic-70" d="M 1075 2688 
Q 1525 3341 2206 3341 
Q 2769 3341 3172 2938 
Q 3641 2469 3641 1644 
Q 3641 841 3178 372 
Q 2775 -31 2200 -31 
Q 1569 -31 1106 497 
L 1106 -1216 
L 563 -1216 
L 563 3250 
L 1075 3250 
L 1075 2688 
z
M 1106 1950 
L 1106 1291 
Q 1106 897 1516 600 
Q 1791 403 2106 403 
Q 2469 403 2725 659 
Q 3066 997 3066 1631 
Q 3066 2200 2784 2559 
Q 2503 2900 2100 2900 
Q 1656 2900 1338 2484 
Q 1106 2184 1106 1950 
z
" transform="scale(0.015625)"/>
       </defs>
       <use xlink:href="#IPAexGothic-68"/>
       <use xlink:href="#IPAexGothic-70" transform="translate(60.693359 0)"/>
      </g>
     </g>
    </g>
    <g id="xtick_2">
     <g id="line2d_4">
      <path d="M 221.4 218.16 
L 77.362655 135 
" clip-path="url(#p4c3645fb79)" style="fill: none; stroke: #b0b0b0; stroke-width: 0.8; stroke-linecap: square"/>
     </g>
     <g id="text_2">
      <!-- 〇 -->
      <g transform="translate(60.238299 130.795312) scale(0.1 -0.1)">
       <defs>
        <path id="IPAexGothic-3007" d="M 3206 5088 
Q 3928 5088 4550 4703 
Q 5113 4366 5447 3822 
Q 5856 3184 5856 2434 
Q 5856 1716 5472 1084 
Q 5131 522 4588 188 
Q 3950 -222 3194 -222 
Q 2484 -222 1850 163 
Q 1288 500 953 1044 
Q 544 1681 544 2441 
Q 544 3719 1613 4538 
Q 2338 5088 3206 5088 
z
M 3188 4641 
Q 2541 4641 1972 4263 
Q 991 3609 991 2425 
Q 991 1753 1381 1191 
Q 2041 225 3206 225 
Q 3859 225 4428 603 
Q 5409 1266 5409 2441 
Q 5409 2922 5178 3394 
Q 4725 4313 3756 4569 
Q 3466 4641 3188 4641 
z
" transform="scale(0.015625)"/>
       </defs>
       <use xlink:href="#IPAexGothic-3007"/>
      </g>
     </g>
    </g>
    <g id="xtick_3">
     <g id="line2d_5">
      <path d="M 221.4 218.16 
L 77.362655 301.32 
" clip-path="url(#p4c3645fb79)" style="fill: none; stroke: #b0b0b0; stroke-width: 0.8; stroke-linecap: square"/>
     </g>
     <g id="text_3">
      <!-- pow -->
      <g transform="translate(55.352362 311.115312) scale(0.1 -0.1)">
       <defs>
        <path id="IPAexGothic-6f" d="M 1919 3341 
Q 2594 3341 3056 2888 
Q 3531 2413 3531 1638 
Q 3531 888 3066 422 
Q 2609 -31 1919 -31 
Q 1228 -31 781 416 
Q 313 881 313 1656 
Q 313 2413 788 2888 
Q 1241 3341 1919 3341 
z
M 1919 2919 
Q 1519 2919 1241 2631 
Q 888 2278 888 1650 
Q 888 1031 1234 684 
Q 1516 403 1919 403 
Q 2331 403 2609 691 
Q 2956 1038 2956 1672 
Q 2956 2269 2603 2631 
Q 2316 2919 1919 2919 
z
" transform="scale(0.015625)"/>
        <path id="IPAexGothic-77" d="M 4772 3250 
L 3666 6 
L 3281 6 
L 2609 1919 
Q 2509 2203 2413 2622 
L 2394 2622 
Q 2322 2319 2188 1919 
L 1534 6 
L 1150 6 
L 44 3250 
L 619 3250 
L 1156 1491 
Q 1206 1331 1363 753 
L 1381 753 
Q 1475 1125 1594 1491 
L 2169 3250 
L 2656 3250 
L 3256 1491 
Q 3347 1244 3469 753 
L 3488 753 
Q 3591 1184 3684 1491 
L 4216 3250 
L 4772 3250 
z
" transform="scale(0.015625)"/>
       </defs>
       <use xlink:href="#IPAexGothic-70"/>
       <use xlink:href="#IPAexGothic-6f" transform="translate(62.109375 0)"/>
       <use xlink:href="#IPAexGothic-77" transform="translate(122.509766 0)"/>
      </g>
     </g>
    </g>
    <g id="xtick_4">
     <g id="line2d_6">
      <path d="M 221.4 218.16 
L 221.4 384.48 
" clip-path="url(#p4c3645fb79)" style="fill: none; stroke: #b0b0b0; stroke-width: 0.8; stroke-linecap: square"/>
     </g>
     <g id="text_4">
      <!-- dp -->
      <g transform="translate(215.174219 401.275312) scale(0.1 -0.1)">
       <defs>
        <path id="IPAexGothic-64" d="M 3391 63 
L 2891 63 
L 2891 619 
Q 2441 -31 1753 -31 
Q 1181 -31 788 372 
Q 313 844 313 1663 
Q 313 2466 772 2938 
Q 1169 3341 1753 3341 
Q 2384 3341 2847 2809 
L 2847 4794 
L 3391 4794 
L 3391 63 
z
M 2847 1303 
L 2847 2097 
Q 2847 2413 2456 2706 
Q 2181 2906 1853 2906 
Q 1484 2906 1228 2650 
Q 888 2309 888 1678 
Q 888 1109 1169 750 
Q 1441 409 1847 409 
Q 2322 409 2656 875 
Q 2847 1134 2847 1303 
z
" transform="scale(0.015625)"/>
       </defs>
       <use xlink:href="#IPAexGothic-64"/>
       <use xlink:href="#IPAexGothic-70" transform="translate(62.402344 0)"/>
      </g>
     </g>
    </g>
    <g id="xtick_5">
     <g id="line2d_7">
      <path d="M 221.4 218.16 
L 365.437345 301.32 
" clip-path="url(#p4c3645fb79)" style="fill: none; stroke: #b0b0b0; stroke-width: 0.8; stroke-linecap: square"/>
     </g>
     <g id="text_5">
      <!-- X -->
      <g transform="translate(374.131232 311.115313) scale(0.1 -0.1)">
       <defs>
        <path id="IPAexGothic-58" d="M 4203 63 
L 3469 63 
L 2163 1972 
L 881 63 
L 159 63 
L 1822 2369 
L 203 4634 
L 922 4634 
L 2181 2753 
L 3450 4634 
L 4166 4634 
L 2528 2375 
L 4203 63 
z
" transform="scale(0.015625)"/>
       </defs>
       <use xlink:href="#IPAexGothic-58"/>
      </g>
     </g>
    </g>
    <g id="xtick_6">
     <g id="line2d_8">
      <path d="M 221.4 218.16 
L 365.437345 135 
" clip-path="url(#p4c3645fb79)" style="fill: none; stroke: #b0b0b0; stroke-width: 0.8; stroke-linecap: square"/>
     </g>
     <g id="text_6">
      <!-- △ -->
      <g transform="translate(372.561701 130.795312) scale(0.1 -0.1)">
       <defs>
        <path id="IPAexGothic-25b3" d="M 3200 4997 
L 5766 56 
L 634 56 
L 3200 4997 
z
M 3200 4069 
L 1363 484 
L 5038 484 
L 3200 4069 
z
" transform="scale(0.015625)"/>
       </defs>
       <use xlink:href="#IPAexGothic-25b3"/>
      </g>
     </g>
    </g>
   </g>
   <g id="matplotlib.axis_2">
    <g id="ytick_1">
     <g id="line2d_9">
      <path d="M 221.4 183.6 
C 216.861622 183.6 212.367375 184.493961 208.174461 186.230723 
C 203.981546 187.967485 200.171507 190.513272 196.96239 193.72239 
C 193.753272 196.931507 191.207485 200.741546 189.470723 204.934461 
C 187.733961 209.127375 186.84 213.621622 186.84 218.16 
C 186.84 222.698378 187.733961 227.192625 189.470723 231.385539 
C 191.207485 235.578454 193.753272 239.388493 196.96239 242.59761 
C 200.171507 245.806728 203.981546 248.352515 208.174461 250.089277 
C 212.367375 251.826039 216.861622 252.72 221.4 252.72 
C 225.938378 252.72 230.432625 251.826039 234.625539 250.089277 
C 238.818454 248.352515 242.628493 245.806728 245.83761 242.59761 
C 249.046728 239.388493 251.592515 235.578454 253.329277 231.385539 
C 255.066039 227.192625 255.96 222.698378 255.96 218.16 
C 255.96 213.621622 255.066039 209.127375 253.329277 204.934461 
C 251.592515 200.741546 249.046728 196.931507 245.83761 193.72239 
C 242.628493 190.513272 238.818454 187.967485 234.625539 186.230723 
C 230.432625 184.493961 225.938378 183.6 221.4 183.6 
" clip-path="url(#p4c3645fb79)" style="fill: none; stroke: #b0b0b0; stroke-width: 0.8; stroke-linecap: square"/>
     </g>
     <g id="text_7">
      <!-- 600 -->
      <g transform="translate(186.84 216.26) scale(0.1 -0.1)">
       <defs>
        <path id="IPAexGothic-36" d="M 1056 2328 
Q 1509 2981 2234 2981 
Q 2906 2981 3316 2513 
Q 3675 2106 3675 1522 
Q 3675 884 3272 434 
Q 2853 -31 2178 -31 
Q 1375 -31 922 581 
Q 481 1178 481 2228 
Q 481 3425 1013 4109 
Q 1494 4725 2272 4725 
Q 3191 4725 3609 4025 
L 3150 3775 
Q 2894 4266 2300 4266 
Q 1119 4266 1031 2328 
L 1056 2328 
z
M 2141 2547 
Q 1684 2547 1384 2206 
Q 1116 1900 1116 1541 
Q 1116 1156 1353 844 
Q 1672 428 2159 428 
Q 2669 428 2941 844 
Q 3125 1128 3125 1503 
Q 3125 1944 2881 2228 
Q 2600 2547 2141 2547 
z
" transform="scale(0.015625)"/>
        <path id="IPAexGothic-30" d="M 2038 4725 
Q 2881 4725 3334 3944 
Q 3694 3325 3694 2344 
Q 3694 1372 3334 741 
Q 2888 -31 2016 -31 
Q 1147 -31 700 741 
Q 341 1372 341 2350 
Q 341 3713 1000 4334 
Q 1419 4725 2038 4725 
z
M 2016 4266 
Q 1516 4266 1228 3759 
Q 934 3247 934 2344 
Q 934 1456 1222 947 
Q 1513 447 2016 447 
Q 2619 447 2909 1153 
Q 3100 1622 3100 2375 
Q 3100 3256 2806 3759 
Q 2509 4266 2016 4266 
z
" transform="scale(0.015625)"/>
       </defs>
       <use xlink:href="#IPAexGothic-36"/>
       <use xlink:href="#IPAexGothic-30" transform="translate(62.988281 0)"/>
       <use xlink:href="#IPAexGothic-30" transform="translate(125.976562 0)"/>
      </g>
     </g>
    </g>
    <g id="ytick_2">
     <g id="line2d_10">
      <path d="M 221.4 149.04 
C 212.323245 149.04 203.33475 150.827923 194.948921 154.301447 
C 186.563093 157.774971 178.943014 162.866544 172.524779 169.284779 
C 166.106544 175.703014 161.014971 183.323093 157.541447 191.708921 
C 154.067923 200.09475 152.28 209.083245 152.28 218.16 
C 152.28 227.236755 154.067923 236.22525 157.541447 244.611079 
C 161.014971 252.996907 166.106544 260.616986 172.524779 267.035221 
C 178.943014 273.453456 186.563093 278.545029 194.948921 282.018553 
C 203.33475 285.492077 212.323245 287.28 221.4 287.28 
C 230.476755 287.28 239.46525 285.492077 247.851079 282.018553 
C 256.236907 278.545029 263.856986 273.453456 270.275221 267.035221 
C 276.693456 260.616986 281.785029 252.996907 285.258553 244.611079 
C 288.732077 236.22525 290.52 227.236755 290.52 218.16 
C 290.52 209.083245 288.732077 200.09475 285.258553 191.708921 
C 281.785029 183.323093 276.693456 175.703014 270.275221 169.284779 
C 263.856986 162.866544 256.236907 157.774971 247.851079 154.301447 
C 239.46525 150.827923 230.476755 149.04 221.4 149.04 
" clip-path="url(#p4c3645fb79)" style="fill: none; stroke: #b0b0b0; stroke-width: 0.8; stroke-linecap: square"/>
     </g>
     <g id="text_8">
      <!-- 1200 -->
      <g transform="translate(152.28 216.26) scale(0.1 -0.1)">
       <defs>
        <path id="IPAexGothic-31" d="M 2463 63 
L 1900 63 
L 1900 4103 
Q 1372 3922 788 3797 
L 684 4231 
Q 1519 4441 2106 4731 
L 2463 4731 
L 2463 63 
z
" transform="scale(0.015625)"/>
        <path id="IPAexGothic-32" d="M 3659 63 
L 447 63 
L 447 594 
Q 825 1475 1894 2203 
L 2072 2322 
Q 2619 2697 2791 2906 
Q 2988 3153 2988 3444 
Q 2988 3772 2756 4003 
Q 2500 4259 2084 4259 
Q 1250 4259 991 3328 
L 497 3506 
Q 853 4725 2116 4725 
Q 2806 4725 3216 4316 
Q 3575 3947 3575 3425 
Q 3575 3038 3344 2722 
Q 3131 2416 2366 1938 
L 2231 1856 
Q 1256 1253 978 569 
L 3659 569 
L 3659 63 
z
" transform="scale(0.015625)"/>
       </defs>
       <use xlink:href="#IPAexGothic-31"/>
       <use xlink:href="#IPAexGothic-32" transform="translate(62.988281 0)"/>
       <use xlink:href="#IPAexGothic-30" transform="translate(125.976562 0)"/>
       <use xlink:href="#IPAexGothic-30" transform="translate(188.964844 0)"/>
      </g>
     </g>
    </g>
    <g id="ytick_3">
     <g id="line2d_11">
      <path d="M 221.4 114.48 
C 207.784867 114.48 194.302124 117.161884 181.723382 122.37217 
C 169.144639 127.582456 157.714522 135.219816 148.087169 144.847169 
C 138.459816 154.474522 130.822456 165.904639 125.61217 178.483382 
C 120.401884 191.062124 117.72 204.544867 117.72 218.16 
C 117.72 231.775133 120.401884 245.257876 125.61217 257.836618 
C 130.822456 270.415361 138.459816 281.845478 148.087169 291.472831 
C 157.714522 301.100184 169.144639 308.737544 181.723382 313.94783 
C 194.302124 319.158116 207.784867 321.84 221.4 321.84 
C 235.015133 321.84 248.497876 319.158116 261.076618 313.94783 
C 273.655361 308.737544 285.085478 301.100184 294.712831 291.472831 
C 304.340184 281.845478 311.977544 270.415361 317.18783 257.836618 
C 322.398116 245.257876 325.08 231.775133 325.08 218.16 
C 325.08 204.544867 322.398116 191.062124 317.18783 178.483382 
C 311.977544 165.904639 304.340184 154.474522 294.712831 144.847169 
C 285.085478 135.219816 273.655361 127.582456 261.076618 122.37217 
C 248.497876 117.161884 235.015133 114.48 221.4 114.48 
" clip-path="url(#p4c3645fb79)" style="fill: none; stroke: #b0b0b0; stroke-width: 0.8; stroke-linecap: square"/>
     </g>
     <g id="text_9">
      <!-- 1800 -->
      <g transform="translate(117.72 216.26) scale(0.1 -0.1)">
       <defs>
        <path id="IPAexGothic-38" d="M 2541 2425 
Q 3700 2031 3700 1197 
Q 3700 541 3100 197 
Q 2663 -56 2016 -56 
Q 1366 -56 928 197 
Q 347 531 347 1178 
Q 347 1988 1409 2381 
L 1409 2400 
Q 481 2734 481 3509 
Q 481 4100 981 4456 
Q 1406 4756 2019 4756 
Q 2703 4756 3131 4403 
Q 3553 4069 3553 3566 
Q 3553 2706 2541 2444 
L 2541 2425 
z
M 2022 2625 
Q 2997 2856 2997 3528 
Q 2997 3916 2675 4150 
Q 2413 4347 2016 4347 
Q 1606 4347 1331 4128 
Q 1050 3897 1050 3522 
Q 1050 3150 1350 2925 
Q 1494 2809 1722 2722 
Q 1984 2616 2022 2625 
z
M 1978 2209 
Q 922 1931 922 1216 
Q 922 775 1313 556 
Q 1606 391 2009 391 
Q 2575 391 2881 697 
Q 3106 922 3106 1250 
Q 3106 1594 2794 1850 
Q 2609 1994 2350 2100 
Q 2047 2222 1978 2209 
z
" transform="scale(0.015625)"/>
       </defs>
       <use xlink:href="#IPAexGothic-31"/>
       <use xlink:href="#IPAexGothic-38" transform="translate(62.988281 0)"/>
       <use xlink:href="#IPAexGothic-30" transform="translate(125.976562 0)"/>
       <use xlink:href="#IPAexGothic-30" transform="translate(188.964844 0)"/>
      </g>
     </g>
    </g>
    <g id="ytick_4">
     <g id="line2d_12">
      <path d="M 221.4 79.92 
C 203.24649 79.92 185.269499 83.495846 168.497842 90.442893 
C 151.726186 97.389941 136.486029 107.573088 123.649559 120.409559 
C 110.813088 133.246029 100.629941 148.486186 93.682893 165.257842 
C 86.735846 182.029499 83.16 200.00649 83.16 218.16 
C 83.16 236.31351 86.735846 254.290501 93.682893 271.062158 
C 100.629941 287.833814 110.813088 303.073971 123.649559 315.910441 
C 136.486029 328.746912 151.726186 338.930059 168.497842 345.877107 
C 185.269499 352.824154 203.24649 356.4 221.4 356.4 
C 239.55351 356.4 257.530501 352.824154 274.302158 345.877107 
C 291.073814 338.930059 306.313971 328.746912 319.150441 315.910441 
C 331.986912 303.073971 342.170059 287.833814 349.117107 271.062158 
C 356.064154 254.290501 359.64 236.31351 359.64 218.16 
C 359.64 200.00649 356.064154 182.029499 349.117107 165.257842 
C 342.170059 148.486186 331.986912 133.246029 319.150441 120.409559 
C 306.313971 107.573088 291.073814 97.389941 274.302158 90.442893 
C 257.530501 83.495846 239.55351 79.92 221.4 79.92 
" clip-path="url(#p4c3645fb79)" style="fill: none; stroke: #b0b0b0; stroke-width: 0.8; stroke-linecap: square"/>
     </g>
     <g id="text_10">
      <!-- 2400 -->
      <g transform="translate(83.16 216.26) scale(0.1 -0.1)">
       <defs>
        <path id="IPAexGothic-34" d="M 3813 1159 
L 3059 1159 
L 3059 63 
L 2547 63 
L 2547 1159 
L 197 1159 
L 197 1672 
L 2456 4678 
L 3059 4678 
L 3059 1634 
L 3813 1634 
L 3813 1159 
z
M 2578 4109 
L 2559 4109 
Q 2278 3656 2003 3284 
L 759 1634 
L 2547 1634 
L 2547 3144 
Q 2547 3481 2578 4109 
z
" transform="scale(0.015625)"/>
       </defs>
       <use xlink:href="#IPAexGothic-32"/>
       <use xlink:href="#IPAexGothic-34" transform="translate(62.988281 0)"/>
       <use xlink:href="#IPAexGothic-30" transform="translate(125.976562 0)"/>
       <use xlink:href="#IPAexGothic-30" transform="translate(188.964844 0)"/>
      </g>
     </g>
    </g>
   </g>
   <g id="text_11">
    <!-- スタッツ -->
    <g transform="translate(197.4 27.144687) scale(0.12 -0.12)">
     <defs>
      <path id="IPAexGothic-30b9" d="M 4359 4481 
L 4716 4147 
Q 4328 3072 3647 2150 
Q 4659 1434 5659 453 
L 5234 19 
Q 4256 1088 3353 1778 
Q 2372 597 1044 -31 
L 653 403 
Q 3128 1453 4097 4000 
L 1241 3963 
L 1228 4453 
L 4359 4481 
z
" transform="scale(0.015625)"/>
      <path id="IPAexGothic-30bf" d="M 4978 4263 
L 5313 3988 
Q 4797 2431 4056 1459 
Q 3191 325 1822 -300 
L 1466 109 
Q 2131 381 2613 738 
Q 3053 1066 3531 1600 
Q 2919 2225 2144 2791 
Q 1603 2203 1172 1875 
L 825 2234 
Q 2316 3328 2866 5031 
L 3359 4897 
Q 3325 4775 3109 4263 
L 4978 4263 
z
M 2894 3816 
Q 2709 3522 2438 3169 
Q 3194 2616 3841 2003 
Q 4366 2806 4747 3816 
L 2894 3816 
z
" transform="scale(0.015625)"/>
      <path id="IPAexGothic-30c3" d="M 1775 1984 
Q 1553 2666 1275 3175 
L 1716 3391 
Q 2034 2866 2247 2209 
L 1775 1984 
z
M 3003 2297 
Q 2813 2978 2522 3469 
L 2978 3681 
Q 3291 3166 3484 2522 
L 3003 2297 
z
M 1928 372 
Q 3094 744 3731 1569 
Q 4275 2263 4469 3525 
L 4975 3406 
Q 4734 1975 4016 1119 
Q 3406 391 2266 -44 
L 1928 372 
z
" transform="scale(0.015625)"/>
      <path id="IPAexGothic-30c4" d="M 1453 2591 
Q 1197 3459 838 4116 
L 1356 4331 
Q 1734 3647 2003 2841 
L 1453 2591 
z
M 2956 2963 
Q 2741 3763 2353 4494 
L 2866 4706 
Q 3234 4031 3500 3200 
L 2956 2963 
z
M 1894 294 
Q 3550 928 4244 2272 
Q 4678 3109 4900 4538 
L 5453 4366 
Q 5166 2584 4434 1519 
Q 3722 463 2266 -147 
L 1894 294 
z
" transform="scale(0.015625)"/>
     </defs>
     <use xlink:href="#IPAexGothic-30b9"/>
     <use xlink:href="#IPAexGothic-30bf" transform="translate(100 0)"/>
     <use xlink:href="#IPAexGothic-30c3" transform="translate(200 0)"/>
     <use xlink:href="#IPAexGothic-30c4" transform="translate(300 0)"/>
    </g>
   </g>
   <g id="legend_1">
    <g id="patch_6">
     <path d="M 155.4 379.48 
L 287.4 379.48 
Q 289.4 379.48 289.4 377.48 
L 289.4 348.965937 
Q 289.4 346.965937 287.4 346.965937 
L 155.4 346.965937 
Q 153.4 346.965937 153.4 348.965937 
L 153.4 377.48 
Q 153.4 379.48 155.4 379.48 
z
" style="fill: #fffff0; opacity: 0.8; stroke: #cccccc; stroke-linejoin: miter"/>
    </g>
    <g id="line2d_13">
     <path d="M 157.4 355.689375 
L 167.4 355.689375 
L 177.4 355.689375 
" style="fill: none; stroke: #000000; stroke-width: 1.5; stroke-linecap: square"/>
    </g>
    <g id="text_12">
     <!-- 暗黒 (max) -->
     <g transform="translate(185.4 359.189375) scale(0.1 -0.1)">
      <defs>
       <path id="IPAexGothic-6697" d="M 2166 4728 
L 2166 544 
L 891 544 
L 891 31 
L 488 31 
L 488 4728 
L 2166 4728 
z
M 891 4331 
L 891 2875 
L 1756 2875 
L 1756 4331 
L 891 4331 
z
M 891 2491 
L 891 934 
L 1756 934 
L 1756 2491 
L 891 2491 
z
M 4341 4500 
L 5794 4500 
L 5794 4128 
L 5184 4128 
Q 5053 3584 4866 3138 
L 6044 3138 
L 6044 2759 
L 2319 2759 
L 2319 3138 
L 3369 3138 
Q 3244 3719 3081 4128 
L 2538 4128 
L 2538 4500 
L 3894 4500 
L 3894 5313 
L 4341 5313 
L 4341 4500 
z
M 3522 4128 
Q 3666 3738 3803 3138 
L 4444 3138 
Q 4597 3541 4738 4128 
L 3522 4128 
z
M 5466 2284 
L 5466 -447 
L 5038 -447 
L 5038 -153 
L 3284 -153 
L 3284 -459 
L 2856 -459 
L 2856 2284 
L 5466 2284 
z
M 3284 1913 
L 3284 1281 
L 5038 1281 
L 5038 1913 
L 3284 1913 
z
M 3284 922 
L 3284 219 
L 5038 219 
L 5038 922 
L 3284 922 
z
" transform="scale(0.015625)"/>
       <path id="IPAexGothic-9ed2" d="M 5266 5013 
L 5266 2828 
L 3403 2828 
L 3403 2388 
L 5663 2388 
L 5663 2003 
L 3403 2003 
L 3403 1544 
L 6078 1544 
L 6078 1141 
L 319 1141 
L 319 1544 
L 2950 1544 
L 2950 2003 
L 722 2003 
L 722 2388 
L 2950 2388 
L 2950 2828 
L 1138 2828 
L 1138 5013 
L 5266 5013 
z
M 1578 4641 
L 1578 4103 
L 2950 4103 
L 2950 4641 
L 1578 4641 
z
M 1578 3744 
L 1578 3200 
L 2950 3200 
L 2950 3744 
L 1578 3744 
z
M 4813 3200 
L 4813 3744 
L 3403 3744 
L 3403 3200 
L 4813 3200 
z
M 4813 4103 
L 4813 4641 
L 3403 4641 
L 3403 4103 
L 4813 4103 
z
M 491 -166 
Q 953 316 1247 984 
L 1663 806 
Q 1325 41 894 -494 
L 491 -166 
z
M 2450 -441 
Q 2381 216 2219 819 
L 2647 922 
Q 2847 384 2963 -319 
L 2450 -441 
z
M 3831 -341 
Q 3638 394 3409 856 
L 3825 984 
Q 4125 450 4313 -184 
L 3831 -341 
z
M 5572 -366 
Q 5175 334 4709 878 
L 5088 1069 
Q 5616 569 6009 -84 
L 5572 -366 
z
" transform="scale(0.015625)"/>
       <path id="IPAexGothic-20" transform="scale(0.015625)"/>
       <path id="IPAexGothic-28" d="M 1928 -1016 
L 1653 -1166 
Q 488 69 488 1875 
Q 488 3678 1653 4909 
L 1928 4763 
Q 1006 3522 1006 1881 
Q 1006 203 1928 -1016 
z
" transform="scale(0.015625)"/>
       <path id="IPAexGothic-6d" d="M 5022 63 
L 4472 63 
L 4472 2059 
Q 4472 2869 3847 2869 
Q 3550 2869 3303 2594 
Q 3128 2397 3059 2103 
L 3059 63 
L 2509 63 
L 2509 2066 
Q 2509 2869 1919 2869 
Q 1606 2869 1369 2594 
Q 1113 2306 1113 2041 
L 1113 63 
L 563 63 
L 563 3250 
L 1075 3250 
L 1075 2700 
Q 1391 3316 2028 3316 
Q 2725 3316 2956 2647 
Q 3303 3316 3953 3316 
Q 4478 3316 4772 2944 
Q 5022 2638 5022 2072 
L 5022 63 
z
" transform="scale(0.015625)"/>
       <path id="IPAexGothic-61" d="M 3156 63 
L 2672 63 
Q 2559 303 2531 556 
L 2509 556 
Q 2147 -25 1428 -25 
Q 934 -25 622 288 
Q 347 563 347 959 
Q 347 1947 2050 1997 
L 2478 2009 
L 2478 2175 
Q 2478 2509 2288 2700 
Q 2088 2900 1775 2900 
Q 1238 2900 969 2378 
L 494 2597 
Q 938 3328 1788 3328 
Q 2375 3328 2691 3000 
Q 2984 2706 2984 2169 
L 2984 997 
Q 2984 400 3156 63 
z
M 2491 1625 
L 2141 1619 
Q 903 1591 903 953 
Q 903 728 1050 581 
Q 1231 403 1525 403 
Q 1934 403 2234 703 
Q 2491 969 2491 1344 
L 2491 1625 
z
" transform="scale(0.015625)"/>
       <path id="IPAexGothic-78" d="M 3050 63 
L 2419 63 
L 1547 1338 
L 691 63 
L 56 63 
L 1247 1675 
L 106 3250 
L 747 3250 
L 1578 2016 
L 2413 3250 
L 3019 3250 
L 1875 1681 
L 3050 63 
z
" transform="scale(0.015625)"/>
       <path id="IPAexGothic-29" d="M 466 4909 
Q 1638 3672 1638 1875 
Q 1638 75 466 -1166 
L 191 -1016 
Q 1119 216 1119 1881 
Q 1119 3509 191 4763 
L 466 4909 
z
" transform="scale(0.015625)"/>
      </defs>
      <use xlink:href="#IPAexGothic-6697"/>
      <use xlink:href="#IPAexGothic-9ed2" transform="translate(100 0)"/>
      <use xlink:href="#IPAexGothic-20" transform="translate(200 0)"/>
      <use xlink:href="#IPAexGothic-28" transform="translate(227.001953 0)"/>
      <use xlink:href="#IPAexGothic-6d" transform="translate(260.302734 0)"/>
      <use xlink:href="#IPAexGothic-61" transform="translate(347.412109 0)"/>
      <use xlink:href="#IPAexGothic-78" transform="translate(402.392578 0)"/>
      <use xlink:href="#IPAexGothic-29" transform="translate(451.269531 0)"/>
     </g>
    </g>
    <g id="line2d_14">
     <path d="M 157.4 370.08 
L 167.4 370.08 
L 177.4 370.08 
" style="fill: none; stroke: #a52a2a; stroke-width: 1.5; stroke-linecap: square"/>
    </g>
    <g id="text_13">
     <!-- ヴェノムヴァンデモン -->
     <g transform="translate(185.4 373.58) scale(0.1 -0.1)">
      <defs>
       <path id="IPAexGothic-30f4" d="M 2859 4922 
L 3384 4922 
L 3384 3903 
L 4984 3903 
L 5291 3653 
Q 5128 1909 4375 984 
Q 3713 156 2494 -278 
L 2125 166 
Q 3403 538 4050 1406 
Q 4584 2138 4728 3428 
L 1581 3428 
L 1581 1994 
L 1069 1994 
L 1069 3903 
L 2859 3903 
L 2859 4922 
z
M 5919 4459 
Q 5541 5028 5166 5331 
L 5466 5563 
Q 5850 5253 6241 4738 
L 5919 4459 
z
M 5294 4019 
Q 5003 4509 4556 4909 
L 4872 5153 
Q 5241 4844 5625 4294 
L 5294 4019 
z
" transform="scale(0.015625)"/>
       <path id="IPAexGothic-30a7" d="M 1503 3297 
L 4891 3297 
L 4891 2856 
L 3419 2856 
L 3419 850 
L 5319 850 
L 5319 403 
L 1075 403 
L 1075 850 
L 2931 850 
L 2931 2856 
L 1503 2856 
L 1503 3297 
z
" transform="scale(0.015625)"/>
       <path id="IPAexGothic-30ce" d="M 1159 500 
Q 3694 1525 4269 4591 
L 4828 4438 
Q 4106 1244 1550 78 
L 1159 500 
z
" transform="scale(0.015625)"/>
       <path id="IPAexGothic-30e0" d="M 609 891 
L 719 897 
L 884 903 
Q 1053 916 1263 925 
Q 1413 931 1447 934 
Q 2291 2888 2856 4706 
L 3394 4525 
Q 2841 2859 2019 981 
Q 3553 1109 4659 1275 
Q 4200 1950 3669 2588 
L 4122 2838 
Q 5075 1700 5788 513 
L 5319 194 
Q 5038 691 4922 866 
Q 2919 509 822 328 
L 609 891 
z
" transform="scale(0.015625)"/>
       <path id="IPAexGothic-30a1" d="M 4859 3553 
L 5153 3256 
Q 4616 2194 3797 1459 
L 3425 1778 
Q 4156 2413 4525 3103 
L 1300 3022 
L 1300 3475 
L 4859 3553 
z
M 1513 172 
Q 2341 578 2600 1184 
Q 2769 1594 2778 2663 
L 3253 2663 
Q 3244 1444 2991 903 
Q 2703 269 1856 -191 
L 1513 172 
z
" transform="scale(0.015625)"/>
       <path id="IPAexGothic-30f3" d="M 2444 3084 
Q 1816 3656 1056 4084 
L 1381 4519 
Q 2063 4191 2816 3559 
L 2444 3084 
z
M 1100 609 
Q 3984 1106 5216 3828 
L 5619 3469 
Q 4413 794 1434 103 
L 1100 609 
z
" transform="scale(0.015625)"/>
       <path id="IPAexGothic-30c7" d="M 563 3072 
L 5741 3072 
L 5741 2613 
L 3578 2613 
Q 3538 1516 3134 872 
Q 2688 156 1663 -256 
L 1313 156 
Q 2338 538 2713 1166 
Q 3003 1644 3034 2613 
L 563 2613 
L 563 3072 
z
M 1406 4588 
L 4588 4588 
L 4588 4128 
L 1406 4128 
L 1406 4588 
z
M 6009 4469 
Q 5647 5009 5253 5338 
L 5553 5569 
Q 5938 5259 6328 4744 
L 6009 4469 
z
M 5413 4000 
Q 5125 4491 4678 4891 
L 4991 5131 
Q 5363 4825 5747 4275 
L 5413 4000 
z
" transform="scale(0.015625)"/>
       <path id="IPAexGothic-30e2" d="M 1216 4409 
L 5147 4409 
L 5147 3950 
L 3053 3950 
L 3053 2797 
L 5644 2797 
L 5644 2328 
L 3053 2328 
L 3053 972 
Q 3053 669 3272 600 
Q 3453 544 4013 544 
Q 4556 544 5269 600 
L 5269 97 
Q 4684 50 4147 50 
Q 3025 50 2753 250 
Q 2541 403 2541 825 
L 2541 2328 
L 744 2328 
L 744 2797 
L 2541 2797 
L 2541 3950 
L 1216 3950 
L 1216 4409 
z
" transform="scale(0.015625)"/>
      </defs>
      <use xlink:href="#IPAexGothic-30f4"/>
      <use xlink:href="#IPAexGothic-30a7" transform="translate(100 0)"/>
      <use xlink:href="#IPAexGothic-30ce" transform="translate(200 0)"/>
      <use xlink:href="#IPAexGothic-30e0" transform="translate(300 0)"/>
      <use xlink:href="#IPAexGothic-30f4" transform="translate(400 0)"/>
      <use xlink:href="#IPAexGothic-30a1" transform="translate(500 0)"/>
      <use xlink:href="#IPAexGothic-30f3" transform="translate(600 0)"/>
      <use xlink:href="#IPAexGothic-30c7" transform="translate(700 0)"/>
      <use xlink:href="#IPAexGothic-30e2" transform="translate(800 0)"/>
      <use xlink:href="#IPAexGothic-30f3" transform="translate(900 0)"/>
     </g>
    </g>
   </g>
  </g>
 </g>
 <defs>
  <clipPath id="p4c3645fb79">
   <path d="M 387.72 218.16 
C 387.72 196.319058 383.417811 174.690491 375.059644 154.512092 
C 366.701477 134.333692 354.449878 115.997879 339.006 100.554 
C 323.562121 85.110122 305.226308 72.858523 285.047908 64.500356 
C 264.869509 56.142189 243.240942 51.84 221.4 51.84 
C 199.559058 51.84 177.930491 56.142189 157.752092 64.500356 
C 137.573692 72.858523 119.237879 85.110122 103.794 100.554 
C 88.350122 115.997879 76.098523 134.333692 67.740356 154.512092 
C 59.382189 174.690491 55.08 196.319058 55.08 218.16 
C 55.08 240.000942 59.382189 261.629509 67.740356 281.807908 
C 76.098523 301.986308 88.350122 320.322121 103.794 335.766 
C 119.237879 351.209878 137.573692 363.461477 157.752092 371.819644 
C 177.930491 380.177811 199.559058 384.48 221.4 384.48 
C 243.240942 384.48 264.869509 380.177811 285.047908 371.819644 
C 305.226308 363.461477 323.562121 351.209878 339.006 335.766 
C 354.449878 320.322121 366.701477 301.986308 375.059644 281.807908 
C 383.417811 261.629509 387.72 240.000942 387.72 218.16 
M 221.4 218.16 
C 221.4 218.16 221.4 218.16 221.4 218.16 
C 221.4 218.16 221.4 218.16 221.4 218.16 
C 221.4 218.16 221.4 218.16 221.4 218.16 
C 221.4 218.16 221.4 218.16 221.4 218.16 
C 221.4 218.16 221.4 218.16 221.4 218.16 
C 221.4 218.16 221.4 218.16 221.4 218.16 
C 221.4 218.16 221.4 218.16 221.4 218.16 
C 221.4 218.16 221.4 218.16 221.4 218.16 
C 221.4 218.16 221.4 218.16 221.4 218.16 
C 221.4 218.16 221.4 218.16 221.4 218.16 
C 221.4 218.16 221.4 218.16 221.4 218.16 
C 221.4 218.16 221.4 218.16 221.4 218.16 
C 221.4 218.16 221.4 218.16 221.4 218.16 
C 221.4 218.16 221.4 218.16 221.4 218.16 
C 221.4 218.16 221.4 218.16 221.4 218.16 
C 221.4 218.16 221.4 218.16 221.4 218.16 
z
"/>
  </clipPath>
 </defs>
</svg>
